<?xml version="1.0" standalone="no"?>
<!DOCTYPE svg PUBLIC "-//W3C//DTD SVG 20010904//EN"
 "http://www.w3.org/TR/2001/REC-SVG-20010904/DTD/svg10.dtd">
<svg version="1.0" xmlns="http://www.w3.org/2000/svg"
 width="2442.000000pt" height="2442.000000pt" viewBox="0 0 2442.000000 2442.000000"
 preserveAspectRatio="xMidYMid meet">
<metadata>
Created by potrace 1.11, written by Peter Selinger 2001-2013
</metadata>
<g transform="translate(0.000000,2442.000000) scale(0.100000,-0.100000)"
fill="#000000" stroke="none">
<path d="M3087 17374 c-1 -1 -36 -4 -78 -5 -316 -9 -728 -148 -1014 -341 -512
-347 -836 -870 -920 -1488 -11 -83 -14 -354 -4 -450 70 -710 504 -1343 1136
-1659 138 -69 195 -93 319 -131 211 -66 387 -92 615 -92 228 0 348 16 569 76
390 104 756 339 1026 657 241 284 392 606 465 994 36 190 37 486 3 705 -15 93
-80 318 -125 430 -275 689 -916 1189 -1647 1284 -102 14 -338 27 -345 20z
m248 -238 c17 -3 50 -7 75 -11 25 -3 95 -18 155 -32 781 -183 1354 -826 1433
-1608 10 -96 8 -333 -3 -425 -11 -93 -55 -279 -90 -383 -92 -268 -222 -476
-429 -683 -301 -301 -681 -487 -1121 -548 -105 -15 -414 -14 -490 1 l-40 8 -3
227 -2 227 -43 12 c-136 36 -280 100 -397 177 -337 220 -558 549 -636 947 -24
123 -24 386 0 509 46 235 136 436 281 626 171 224 443 409 723 491 l72 21 1
151 c1 84 1 178 1 209 -1 72 4 76 135 84 54 4 99 8 101 9 5 4 241 -4 277 -9z"/>
<path d="M3137 16622 c-9 -2 -15 -8 -12 -13 4 -5 1 -9 -4 -9 -6 0 -11 5 -11
10 0 16 -22 12 -35 -7 -9 -13 -14 -13 -20 -3 -5 9 -4 11 3 6 7 -4 12 -2 12 3
0 14 -19 14 -95 0 -33 -5 -72 -12 -87 -14 -56 -8 -107 -28 -101 -39 5 -8 3 -8
-8 0 -17 14 -79 -9 -79 -29 0 -9 -2 -9 -9 1 -7 11 -17 10 -52 -8 -24 -13 -46
-25 -49 -29 -3 -3 -14 -8 -25 -9 -11 -2 -27 -10 -36 -18 -8 -8 -21 -14 -27
-14 -7 0 -12 -5 -12 -11 0 -5 -5 -7 -12 -3 -7 5 -9 2 -5 -9 4 -11 2 -14 -8
-11 -22 9 -66 -26 -60 -47 4 -11 2 -19 -5 -19 -6 0 -9 4 -5 9 3 5 1 12 -4 15
-5 3 -27 -12 -49 -33 -22 -22 -44 -36 -48 -33 -4 4 -4 -1 -1 -11 4 -11 3 -16
-4 -11 -12 7 -51 -30 -42 -40 4 -3 -1 -6 -9 -6 -23 0 -173 -177 -173 -204 0
-6 12 -12 27 -13 18 -1 31 6 42 22 9 14 44 57 79 97 51 60 63 79 61 105 0 18
3 30 7 27 4 -2 5 -12 2 -21 -5 -12 -3 -14 8 -8 12 8 12 6 0 -8 -8 -10 -9 -17
-3 -17 6 0 13 8 17 18 3 9 30 33 60 52 48 31 60 45 57 71 -1 3 9 5 21 4 25 -2
57 12 57 24 0 5 -8 7 -19 4 -10 -3 -21 -1 -24 4 -7 10 34 10 51 -1 16 -9 16 6
0 22 -8 8 -8 12 -1 12 6 0 14 -8 17 -17 4 -10 10 -13 14 -8 4 6 30 21 57 34
28 14 56 32 63 40 8 9 11 10 7 4 -3 -7 -1 -13 6 -13 6 0 9 8 6 19 -5 19 15 23
30 6 4 -4 2 -5 -4 -1 -7 4 -13 2 -13 -3 0 -6 3 -11 6 -11 15 0 130 44 139 53
7 7 5 7 -5 2 -8 -5 -11 -4 -7 0 10 12 38 15 31 4 -3 -5 0 -9 5 -9 6 0 11 4 11
10 0 5 13 7 29 4 16 -4 32 -1 35 5 5 7 1 9 -8 5 -10 -4 -16 -1 -16 7 0 7 3 9
7 6 3 -4 12 -2 20 5 11 9 13 8 11 -3 -2 -8 5 -14 17 -14 15 0 19 6 18 25 -3
24 -3 24 7 3 8 -20 15 -22 78 -20 51 1 68 5 65 15 -3 6 0 12 6 12 6 0 11 -5
11 -12 0 -6 3 -8 7 -5 3 4 12 2 19 -4 8 -7 14 -6 20 2 5 8 3 10 -7 4 -8 -5
-10 -4 -6 0 12 14 39 15 34 2 -4 -12 32 -18 121 -20 17 -1 32 -5 32 -9 0 -4 8
-6 18 -6 9 0 29 -3 45 -7 23 -6 26 -5 22 11 -4 12 -1 11 6 -3 7 -13 18 -23 26
-23 21 0 27 -1 44 -10 35 -19 149 -59 144 -50 -3 5 0 12 6 16 7 4 9 3 6 -2 -3
-6 -2 -16 3 -24 7 -12 11 -10 18 9 7 20 10 21 15 8 4 -10 2 -17 -3 -17 -22 0
-7 -16 34 -39 25 -12 50 -20 57 -16 8 6 7 10 -5 17 -9 5 -16 14 -16 21 0 7 4
6 10 -3 5 -8 10 -10 10 -5 0 6 4 3 10 -5 5 -9 5 -19 -2 -27 -6 -8 -8 -17 -4
-20 4 -4 12 -1 17 7 9 13 10 12 6 -2 -4 -10 3 -22 19 -32 13 -9 24 -13 24 -9
0 4 6 -1 13 -12 8 -10 19 -15 25 -11 7 4 12 1 12 -6 0 -7 45 -55 100 -105 55
-51 97 -93 93 -93 -5 -1 3 -10 16 -20 13 -11 20 -20 17 -20 -4 0 5 -17 19 -37
27 -41 32 -58 13 -48 -7 4 -5 0 5 -8 9 -8 17 -20 17 -26 0 -7 5 -9 12 -5 7 4
8 3 4 -5 -4 -6 -19 -9 -34 -6 -15 2 -40 7 -57 10 -27 5 -28 5 -10 -6 19 -12
37 -16 78 -18 17 -1 17 -4 -4 -33 -13 -17 -17 -28 -10 -24 10 7 11 3 6 -14
-13 -40 -22 -130 -13 -130 4 0 8 17 8 38 0 20 5 55 12 77 6 22 12 44 12 49 2
24 27 14 41 -16 8 -18 13 -25 10 -15 -15 55 -16 67 -6 67 6 0 8 -7 4 -17 -4
-11 -3 -14 5 -9 8 5 10 2 6 -9 -4 -10 -2 -15 6 -13 6 2 16 -7 21 -20 5 -15 5
-21 -1 -17 -6 3 -7 -1 -4 -9 3 -9 11 -13 16 -10 6 4 8 -2 3 -15 -4 -13 -2 -21
5 -21 6 0 8 -5 5 -10 -4 -7 3 -9 22 -5 25 5 26 4 6 -4 -23 -10 -32 -41 -13
-41 5 0 9 -3 9 -7 -3 -20 2 -34 11 -28 6 3 10 -1 10 -10 0 -9 -4 -14 -9 -11
-5 4 -7 -4 -3 -16 3 -12 7 -17 10 -10 2 7 8 9 13 6 6 -3 6 -11 -2 -20 -6 -8
-8 -21 -4 -31 5 -10 8 -28 8 -40 0 -12 4 -20 9 -17 4 3 5 10 2 16 -4 7 -2 8 5
4 6 -4 9 -11 6 -16 -3 -4 2 -11 11 -14 13 -5 14 -9 4 -21 -7 -8 -9 -22 -5 -32
7 -16 9 -42 6 -74 -1 -5 -5 -8 -9 -5 -14 9 -7 -51 9 -70 12 -16 12 -17 -1 -12
-13 4 -15 -7 -15 -71 1 -108 3 -123 17 -115 7 4 8 3 4 -4 -4 -7 -14 -12 -22
-12 -8 0 -14 -6 -15 -12 -2 -26 -7 -54 -17 -86 -6 -19 -7 -30 -1 -27 14 9 11
-7 -5 -19 -18 -14 -29 -63 -16 -71 6 -4 7 1 3 12 -5 14 -3 15 7 6 15 -14 5
-34 -14 -27 -21 8 -28 -26 -11 -52 9 -13 11 -24 6 -24 -5 0 -12 8 -15 17 -6
15 -8 15 -16 3 -12 -18 -13 -33 -2 -26 4 2 14 0 22 -6 12 -8 12 -9 -2 -4 -12
3 -18 0 -18 -10 0 -9 5 -12 12 -8 7 5 8 3 3 -6 -6 -10 -11 -9 -22 5 -12 17
-13 17 -13 2 0 -24 4 -32 13 -29 4 1 7 -2 7 -8 0 -17 -18 -11 -33 10 -14 20
-14 19 -26 -6 -11 -24 -39 -29 -33 -5 1 6 -8 11 -20 11 l-23 -1 24 -19 c24
-21 25 -20 -23 -34 -7 -3 -19 1 -26 7 -10 9 -11 9 -8 -3 7 -21 48 -20 81 3 15
10 27 14 27 8 0 -5 -9 -13 -20 -16 -24 -7 -27 -35 -4 -35 9 0 12 5 8 13 -4 6
-3 8 1 4 5 -4 15 3 22 15 9 18 12 19 13 6 0 -9 -5 -20 -10 -23 -8 -5 -7 -12 2
-23 11 -13 11 -14 -2 -7 -28 17 -59 9 -81 -20 l-23 -30 22 19 c30 26 28 12 -5
-32 -16 -20 -23 -33 -17 -29 7 4 14 0 17 -7 4 -10 0 -13 -14 -11 -12 3 -25 -5
-35 -21 -24 -36 -149 -155 -224 -212 -75 -57 -112 -80 -192 -118 -32 -15 -58
-33 -58 -40 0 -8 -5 -14 -11 -14 -5 0 -8 4 -5 9 4 5 -16 2 -44 -7 -27 -9 -50
-19 -50 -24 0 -4 -7 -5 -16 -1 -10 4 -14 1 -12 -8 2 -8 -1 -14 -7 -14 -5 0 -9
4 -7 9 2 5 -5 5 -15 1 -10 -4 -27 -8 -38 -9 -11 -2 -36 -7 -55 -11 -19 -5 -43
-8 -52 -6 -10 1 -18 -1 -18 -6 0 -4 -42 -9 -92 -10 -52 -2 -94 -7 -96 -13 -2
-5 -8 -10 -13 -10 -6 0 -7 4 -4 10 3 5 -4 10 -17 9 -13 0 -36 2 -53 5 -16 2
-50 7 -75 10 -25 3 -68 11 -97 19 -46 12 -51 12 -46 -2 3 -11 0 -10 -11 3 -9
11 -16 16 -16 10 0 -5 -4 -3 -8 3 -4 7 -19 14 -32 15 -14 2 -27 5 -30 8 -3 3
-29 16 -59 28 -37 15 -52 18 -48 8 3 -7 1 -19 -4 -27 -8 -12 -10 -12 -8 1 4
35 -2 49 -23 56 -13 4 -29 7 -37 5 -7 -1 -11 2 -8 6 6 9 -48 47 -57 41 -2 -2
-16 8 -30 21 -14 14 -26 21 -26 16 0 -4 -9 4 -20 17 -12 17 -28 24 -43 23 -15
-2 -24 2 -24 11 0 11 4 11 16 2 21 -16 11 -6 -90 90 -48 44 -85 83 -82 86 2 2
-14 18 -36 36 -22 18 -39 40 -39 49 0 9 -3 25 -7 35 -7 15 -5 17 6 11 8 -5 7
0 -4 12 -10 12 -16 30 -13 44 3 13 5 28 5 33 2 21 100 101 156 128 33 15 54
28 47 28 -25 0 -108 -48 -156 -91 -34 -30 -47 -37 -42 -24 4 11 9 43 11 70 l4
50 -10 -54 c-5 -30 -16 -67 -23 -83 -11 -20 -11 -28 -3 -28 7 0 6 -4 -3 -9
-16 -11 -33 -4 -25 10 8 12 -2 11 -27 -2 -15 -8 -19 -8 -14 0 4 6 2 11 -4 11
-6 0 -9 4 -6 9 4 5 0 11 -6 14 -10 3 -10 8 -2 16 9 10 13 6 18 -13 3 -14 11
-26 16 -26 16 0 21 19 10 37 -9 15 -10 14 -5 -7 6 -23 5 -23 -6 -5 -6 11 -24
30 -38 42 -14 12 -20 22 -13 23 6 0 12 -5 12 -12 0 -6 2 -9 6 -6 3 3 -2 21
-10 39 -9 19 -13 24 -10 12 l5 -23 -25 23 c-17 15 -22 25 -14 34 5 7 6 18 2
25 -5 10 -4 10 6 1 11 -10 11 -15 0 -28 -9 -11 -9 -15 -1 -15 18 0 25 29 10
46 -7 9 -13 23 -14 32 -4 45 -18 82 -31 82 -8 0 -14 -4 -14 -10 0 -5 -5 -10
-11 -10 -8 0 -9 4 0 13 6 8 8 17 4 21 -4 4 0 4 8 1 13 -5 16 0 14 27 -2 18 -4
47 -5 63 -2 30 -2 30 -11 5 -7 -19 -8 -15 -4 17 5 44 -18 89 -38 76 -6 -3 -7
-1 -3 5 9 15 12 15 30 -4 11 -10 16 -11 16 -3 0 6 -10 20 -22 30 -11 11 -17
19 -12 19 6 0 16 -6 23 -12 10 -11 12 -10 9 2 -2 8 -10 18 -18 22 -11 5 -10 7
5 7 17 1 17 3 5 11 -13 9 -13 10 0 10 8 1 2 7 -15 15 -29 14 -29 14 -4 10 29
-4 28 -9 32 152 0 18 4 30 8 27 4 -2 6 8 4 23 -1 16 2 31 9 35 8 6 8 8 -1 8
-7 0 -13 4 -13 10 0 5 7 6 17 3 9 -4 14 -2 10 3 -3 6 1 29 9 53 8 23 12 46 9
51 -2 4 2 13 10 20 18 15 19 29 2 44 -7 6 -11 10 -9 9 10 -4 60 61 55 73 -3 8
-7 14 -10 14 -3 0 -2 -7 1 -16 3 -9 2 -12 -5 -9 -5 4 -8 12 -6 18 4 14 47 17
47 3 1 -6 8 5 17 24 9 19 15 44 15 55 l-2 20 9 -20 c5 -12 5 -25 -1 -32 -5 -7
-5 -14 2 -18 5 -3 10 -16 10 -28 1 -20 1 -21 11 -4 8 13 7 22 -2 33 -17 21 6
35 37 24 19 -8 22 -6 17 7 -4 11 -3 14 5 9 7 -4 12 -2 12 3 0 12 -13 14 -23 4
-13 -12 -57 -9 -57 4 0 14 99 113 112 113 4 0 8 5 8 10 0 6 -20 -6 -45 -27
-25 -21 -50 -38 -55 -38 -4 0 -12 -4 -16 -8 -5 -4 -16 2 -25 15 -17 22 -18 22
-25 3 -4 -11 -14 -26 -21 -33 -7 -7 -13 -22 -13 -33 0 -11 -4 -18 -9 -15 -5 3
-12 -1 -15 -10 -5 -12 -1 -14 17 -10 14 4 11 1 -8 -9 -16 -8 -24 -14 -17 -15
7 0 10 -5 7 -10 -4 -6 -11 -8 -16 -5 -17 11 -9 -18 9 -31 16 -12 15 -13 -5 -8
-15 4 -25 0 -32 -15 -7 -12 -9 -21 -5 -21 3 0 1 -7 -6 -15 -7 -8 -9 -15 -5
-15 4 0 0 -12 -10 -26 -19 -29 -13 -43 10 -24 13 11 14 10 9 -4 -3 -9 -16 -16
-28 -16 -17 0 -18 -2 -6 -10 8 -5 10 -10 4 -10 -14 0 -21 -24 -48 -163 -8 -37
-13 -87 -11 -110 1 -23 -2 -53 -7 -66 -7 -19 -5 -22 6 -18 9 4 18 1 22 -5 5
-7 2 -8 -6 -3 -10 6 -12 4 -7 -8 4 -12 2 -14 -10 -10 -13 5 -14 3 -3 -18 9
-17 10 -24 2 -27 -8 -2 -9 -9 -2 -21 5 -10 6 -22 2 -26 -4 -5 2 -5 13 -2 18 6
18 6 4 -5 -16 -13 -16 -28 -2 -98 3 -19 5 -39 4 -44 -2 -8 13 -61 26 -96 4 -8
5 -19 4 -24 -1 -4 3 -14 9 -20 5 -7 6 -17 2 -21 -4 -5 2 -5 12 -1 16 5 17 4 6
-9 -8 -10 -9 -19 -3 -27 5 -7 16 -33 23 -57 8 -24 20 -45 27 -48 7 -3 11 -9 8
-13 -8 -13 17 -60 32 -60 8 0 11 5 7 12 -5 7 -3 8 6 3 11 -7 11 -10 -2 -19
-15 -9 -15 -12 0 -35 9 -14 19 -28 22 -31 3 -3 23 -31 44 -63 22 -32 45 -56
51 -53 8 3 11 -2 8 -13 -4 -17 47 -71 68 -71 5 0 7 -4 4 -10 -3 -5 -1 -10 5
-10 6 0 8 -4 5 -10 -3 -5 0 -10 7 -10 8 0 20 -9 28 -21 18 -25 136 -119 150
-119 5 0 10 -3 10 -8 0 -4 10 -13 21 -21 19 -11 21 -11 16 3 -4 10 1 19 16 26
19 10 20 9 6 -2 -11 -9 -14 -19 -8 -33 4 -11 8 -16 8 -12 1 4 11 -1 23 -12 16
-15 25 -18 34 -10 15 12 34 4 33 -14 0 -9 -2 -9 -6 1 -5 13 -23 17 -23 4 0
-12 139 -74 150 -67 5 3 7 12 4 20 -4 8 -9 13 -13 10 -4 -2 -8 3 -8 12 0 13 4
11 18 -6 10 -12 15 -29 12 -36 -3 -9 1 -15 11 -16 20 -2 25 -3 56 -16 44 -18
79 -23 85 -13 3 5 16 10 28 9 20 -1 20 -2 -3 -8 -17 -5 -21 -9 -12 -15 6 -4
17 -4 23 0 6 3 15 1 19 -7 7 -10 12 -10 26 2 11 9 15 9 10 2 -4 -8 -1 -13 9
-13 10 0 14 5 10 13 -4 6 0 5 7 -5 11 -12 29 -16 76 -14 38 1 62 -2 62 -9 0
-5 4 -4 9 4 7 11 9 11 13 0 4 -12 7 -12 21 0 11 9 17 10 17 2 0 -6 5 -11 11
-11 5 0 7 6 3 13 -6 9 -5 9 7 0 8 -6 20 -8 27 -4 7 4 30 6 52 4 34 -3 42 1 50
19 7 18 9 19 9 6 1 -12 9 -18 27 -18 16 0 23 4 18 11 -4 7 0 9 13 5 22 -7 151
20 169 35 6 5 14 6 17 2 4 -3 9 2 13 11 3 9 10 16 16 16 5 0 6 -5 2 -11 -3 -6
8 -3 25 5 17 9 34 17 38 17 5 0 18 7 31 15 12 8 22 11 22 7 0 -5 4 -3 8 3 4 5
25 18 47 29 22 10 46 24 53 32 7 7 20 13 28 13 8 0 14 7 14 17 0 9 3 13 7 10
6 -7 35 9 71 38 70 57 81 68 76 76 -3 5 -2 8 3 7 11 -4 50 24 52 37 0 6 5 10
9 10 9 0 72 69 72 79 0 3 -6 5 -12 4 -7 -2 -14 7 -16 20 -2 12 1 22 6 22 6 0
8 -9 5 -19 -3 -13 0 -19 10 -17 19 2 49 27 42 34 -2 3 3 12 13 21 10 9 32 37
50 62 24 36 28 49 19 58 -9 10 -8 12 8 9 13 -2 20 3 20 12 0 8 6 20 14 26 8 6
11 16 7 22 -4 7 -2 12 4 12 6 0 9 4 6 9 -4 5 -3 11 1 13 13 5 43 71 45 98 2
14 8 28 13 33 6 4 4 11 -5 17 -13 9 -13 10 1 10 18 0 50 110 53 183 0 15 3 27
6 27 3 0 6 24 8 53 1 28 5 60 8 70 3 9 1 17 -5 17 -6 0 -11 5 -11 11 0 5 4 8
8 5 15 -9 6 35 -9 46 -11 8 -11 9 4 4 9 -3 17 -1 17 4 0 6 -6 10 -12 10 -9 0
-8 4 2 10 13 8 13 10 -2 10 -23 0 -33 19 -19 33 9 9 11 8 6 -5 -4 -11 -2 -18
4 -18 8 0 11 19 10 55 -1 30 -7 55 -12 55 -5 0 -6 -8 -2 -17 5 -14 3 -15 -6
-6 -6 6 -8 17 -3 25 15 23 14 43 -3 56 -9 6 -12 12 -5 12 6 0 9 9 5 23 -2 12
-5 30 -5 39 1 10 -4 20 -9 23 -5 4 -7 11 -4 16 4 5 1 9 -5 9 -6 0 -9 4 -5 10
6 10 -59 192 -82 227 -9 13 -18 21 -22 19 -3 -2 -7 7 -7 21 -1 13 -11 33 -23
44 -12 11 -21 26 -21 34 0 8 -4 15 -8 15 -4 0 -16 15 -27 33 -21 36 -37 55
-114 136 -29 31 -57 55 -63 53 -5 -1 -7 1 -4 6 3 5 -3 16 -13 24 -14 12 -22
13 -31 5 -8 -9 -10 -8 -5 4 4 11 -8 27 -38 52 -44 36 -45 36 -62 17 -20 -22
-35 -18 -34 8 0 15 1 15 8 -1 6 -17 8 -17 20 -3 15 18 5 40 -15 32 -8 -3 -14
-1 -14 4 0 13 -61 50 -72 44 -4 -3 -8 0 -8 7 0 7 -3 9 -7 6 -3 -4 -11 0 -17 9
-6 8 -21 16 -34 17 -12 0 -22 4 -22 8 0 7 -55 32 -65 30 -3 -1 -19 6 -37 15
-25 13 -30 14 -25 2 3 -8 1 -21 -5 -29 -8 -11 -9 -11 -5 2 8 26 -9 42 -60 55
-62 17 -63 17 -63 0 0 -20 -17 -29 -26 -15 -4 8 -3 9 4 5 8 -5 12 0 12 13 0
15 -7 21 -22 22 -35 2 -61 6 -100 13 -25 5 -38 3 -41 -6 -4 -10 -6 -10 -6 0
-1 15 -81 17 -81 1 0 -5 5 -7 12 -3 7 4 8 3 4 -4 -10 -16 -15 -15 -24 6 -4 10
-15 16 -25 14z m-107 -22 c0 -5 -2 -10 -4 -10 -3 0 -8 5 -11 10 -3 6 -1 10 4
10 6 0 11 -4 11 -10z m213 -5 c4 -8 3 -16 -1 -19 -4 -3 -9 4 -9 15 -2 23 3 25
10 4z m47 11 c0 -3 -4 -8 -10 -11 -5 -3 -10 -1 -10 4 0 6 5 11 10 11 6 0 10
-2 10 -4z m-392 -41 c-3 -3 -9 2 -12 12 -6 14 -5 15 5 6 7 -7 10 -15 7 -18z
m156 17 c3 -5 -1 -9 -9 -9 -8 0 -12 4 -9 9 3 4 7 8 9 8 2 0 6 -4 9 -8z m56 0
c0 -4 -10 -9 -22 -9 -18 -2 -20 0 -8 7 18 12 30 13 30 2z m200 4 c0 -3 -4 -8
-10 -11 -5 -3 -10 -1 -10 4 0 6 5 11 10 11 6 0 10 -2 10 -4z m30 -16 c-24 -15
-36 -11 -14 4 10 8 21 12 24 10 2 -3 -2 -9 -10 -14z m53 14 c-7 -3 -9 -13 -6
-22 4 -14 3 -14 -5 -2 -12 16 -7 30 11 29 9 0 9 -2 0 -5z m-568 -24 c-3 -5
-12 -10 -18 -10 -7 0 -6 4 3 10 19 12 23 12 15 0z m675 -6 c0 -2 -7 -4 -15 -4
-8 0 -15 4 -15 10 0 5 7 7 15 4 8 -4 15 -8 15 -10z m-703 -17 c7 0 10 -4 7 -9
-3 -4 -14 -3 -26 3 -14 8 -23 8 -31 0 -8 -8 -6 -11 8 -11 10 0 16 -3 12 -6 -3
-4 -14 -4 -23 0 -13 5 -14 9 -4 22 8 8 20 12 29 8 9 -3 21 -7 28 -7z m-73 -23
c3 -8 2 -12 -4 -9 -6 3 -10 10 -10 16 0 14 7 11 14 -7z m886 -1 c0 -3 -7 -3
-15 1 -8 3 -15 0 -15 -6 0 -6 -3 -9 -6 -5 -11 10 6 26 21 20 8 -3 15 -7 15
-10z m-965 -13 c3 -5 1 -10 -4 -10 -6 0 -11 5 -11 10 0 6 2 10 4 10 3 0 8 -4
11 -10z m1021 -7 c-3 -20 -22 -28 -31 -14 -4 7 0 8 10 5 9 -4 15 -3 14 2 -2
13 0 24 5 24 2 0 3 -8 2 -17z m-1111 -33 c-3 -5 -12 -10 -18 -10 -7 0 -6 4 3
10 19 12 23 12 15 0z m35 0 c0 -5 -4 -10 -10 -10 -5 0 -10 5 -10 10 0 6 5 10
10 10 6 0 10 -4 10 -10z m1160 -20 c0 -5 -5 -10 -11 -10 -5 0 -7 5 -4 10 3 6
8 10 11 10 2 0 4 -4 4 -10z m30 -25 c14 -19 14 -19 -2 -6 -10 7 -18 18 -18 24
0 6 1 8 3 6 1 -2 9 -13 17 -24z m-1333 -31 c-3 -3 -12 -4 -19 -1 -8 3 -5 6 6
6 11 1 17 -2 13 -5z m1473 -18 c0 -2 -7 -7 -16 -10 -8 -3 -12 -2 -9 4 6 10 25
14 25 6z m-1540 -26 c0 -5 -4 -10 -10 -10 -5 0 -10 5 -10 10 0 6 5 10 10 10 6
0 10 -4 10 -10z m1566 -2 c3 -4 -1 -5 -10 -4 -8 1 -18 5 -22 8 -3 4 1 5 10 4
8 -1 18 -5 22 -8z m-1541 -8 c-3 -5 -16 -15 -28 -21 -19 -9 -19 -8 3 10 28 23
34 26 25 11z m-55 -30 c0 -5 -4 -10 -10 -10 -5 0 -10 5 -10 10 0 6 5 10 10 10
6 0 10 -4 10 -10z m-25 -20 c3 -5 1 -10 -4 -10 -6 0 -11 5 -11 10 0 6 2 10 4
10 3 0 8 -4 11 -10z m1645 -1 c0 -5 5 -7 12 -3 7 4 8 3 4 -5 -6 -9 -11 -9 -22
0 -17 14 -18 19 -4 19 6 0 10 -5 10 -11z m67 -37 c-15 -7 -10 -15 33 -55 28
-26 47 -47 42 -47 -14 0 -103 96 -96 103 4 4 14 7 23 6 13 0 12 -2 -2 -7z
m-1807 -22 c0 -5 -5 -10 -11 -10 -5 0 -7 5 -4 10 3 6 8 10 11 10 2 0 4 -4 4
-10z m26 -5 c-3 -20 -26 -44 -26 -27 0 7 5 12 10 12 6 0 9 3 9 8 -2 11 1 22 5
22 2 0 3 -7 2 -15z m1819 -3 c-3 -3 -11 0 -18 7 -9 10 -8 11 6 5 10 -3 15 -9
12 -12z m-1859 -49 c-3 -4 -6 -1 -6 6 0 7 -4 9 -10 6 -6 -4 -7 1 -3 11 6 15 7
15 15 -1 6 -9 7 -19 4 -22z m-31 -43 c-23 -24 -55 -31 -55 -13 0 3 6 3 14 0
14 -5 53 32 48 46 -1 5 2 5 9 2 7 -5 1 -17 -16 -35z m-17 16 c-7 -8 -15 -12
-17 -11 -5 6 10 25 20 25 5 0 4 -6 -3 -14z m1986 6 c3 -5 -1 -9 -9 -9 -8 0
-15 4 -15 9 0 4 4 8 9 8 6 0 12 -4 15 -8z m-7 -37 c0 -8 -4 -12 -9 -9 -5 3 -6
10 -3 15 9 13 12 11 12 -6z m38 -5 c4 -6 2 -17 -5 -25 -7 -8 -7 -15 -1 -19 5
-3 11 -1 13 6 3 7 7 5 11 -6 4 -11 3 -15 -4 -10 -7 4 -10 1 -7 -7 3 -8 14 -13
24 -12 10 1 13 0 7 -3 -7 -3 -13 -10 -13 -15 0 -6 4 -8 8 -5 4 2 14 1 22 -5
10 -6 11 -9 3 -9 -19 0 -16 -18 5 -23 14 -4 14 -5 1 -6 -19 -1 -93 105 -79
114 6 3 10 11 10 16 0 6 -4 7 -10 4 -5 -3 -10 -1 -10 4 0 14 17 14 25 1z
m-2041 -19 c3 -5 -2 -15 -12 -22 -15 -13 -16 -12 -4 3 11 14 10 17 -5 21 -16
4 -16 5 -1 6 9 0 19 -3 22 -8z m-31 -31 c3 -11 3 -20 1 -20 -2 0 -8 9 -14 20
-6 11 -7 20 -2 20 6 0 12 -9 15 -20z m-39 -68 c3 -5 -1 -9 -9 -9 -8 0 -15 4
-15 9 0 4 4 8 9 8 6 0 12 -4 15 -8z m-18 -45 c1 -8 -4 -14 -12 -14 -10 0 -11
4 -3 14 8 9 8 13 0 13 -6 0 -11 5 -11 12 0 16 23 -6 26 -25z m2220 1 c4 -6 3
-8 -4 -4 -6 3 -18 -1 -26 -10 -17 -17 -19 -15 -10 10 7 19 30 21 40 4z m-2236
-38 c-8 -5 -19 -10 -25 -10 -5 0 -3 5 5 10 8 5 20 10 25 10 6 0 3 -5 -5 -10z
m2270 0 c0 -5 -4 -10 -10 -10 -5 0 -10 5 -10 10 0 6 5 10 10 10 6 0 10 -4 10
-10z m17 -25 c0 -8 -4 -15 -9 -15 -10 0 -11 14 -1 23 9 10 10 9 10 -8z m22
-48 c0 -9 -2 -8 -6 1 -2 6 -10 9 -15 6 -7 -4 -8 -2 -4 5 9 13 26 5 25 -12z
m-2388 -20 c-10 -9 -11 -8 -5 6 3 10 9 15 12 12 3 -3 0 -11 -7 -18z m2384 -7
c-3 -5 -11 -10 -16 -10 -6 0 -7 5 -4 10 3 6 11 10 16 10 6 0 7 -4 4 -10z
m-2390 -60 c3 -6 -1 -7 -9 -4 -18 7 -21 14 -7 14 6 0 13 -4 16 -10z m2405 -33
c-10 -9 -11 -9 -6 0 3 6 2 14 -4 18 -5 3 -10 11 -10 16 0 6 7 3 16 -6 14 -13
14 -19 4 -28z m34 -43 c3 -8 2 -12 -4 -9 -6 3 -10 10 -10 16 0 14 7 11 14 -7z
m-2454 -4 c0 -5 -7 -7 -15 -4 -8 4 -15 8 -15 10 0 2 7 4 15 4 8 0 15 -4 15
-10z m-15 -20 c3 -6 -1 -7 -9 -4 -18 7 -21 14 -7 14 6 0 13 -4 16 -10z m2486
-23 c-10 -9 -11 -8 -5 6 3 10 9 15 12 12 3 -3 0 -11 -7 -18z m-2501 9 c0 -3
-4 -8 -10 -11 -5 -3 -10 -1 -10 4 0 6 5 11 10 11 6 0 10 -2 10 -4z m2500 -32
c0 -2 -7 -4 -15 -4 -8 0 -15 4 -15 10 0 5 7 7 15 4 8 -4 15 -8 15 -10z m-2513
-16 c-3 -8 -6 -5 -6 6 -1 11 2 17 5 13 3 -3 4 -12 1 -19z m7 -27 c4 -5 -3 -7
-14 -4 -23 6 -26 13 -6 13 8 0 17 -4 20 -9z m-37 -63 c-3 -8 -6 -5 -6 6 -1 11
2 17 5 13 3 -3 4 -12 1 -19z m15 -21 c-20 -19 -20 -21 -4 -34 15 -12 14 -13
-6 -3 l-24 12 21 22 c12 12 21 29 22 37 0 11 2 11 6 0 3 -7 -4 -22 -15 -34z
m2568 -27 c0 -5 -5 -10 -11 -10 -5 0 -7 5 -4 10 3 6 8 10 11 10 2 0 4 -4 4
-10z m-2561 -57 c0 -25 -1 -25 -8 -8 -5 11 -7 23 -4 28 8 14 13 7 12 -20z
m2541 -43 c0 -5 -2 -10 -4 -10 -3 0 -8 5 -11 10 -3 6 -1 10 4 10 6 0 11 -4 11
-10z m10 -50 c-6 -11 -13 -20 -16 -20 -2 0 0 9 6 20 6 11 13 20 16 20 2 0 0
-9 -6 -20z m-12 -79 c-10 -17 -10 -25 0 -41 17 -27 15 -38 -3 -14 -16 21 -21
79 -5 69 6 -3 10 -1 10 6 0 7 3 10 6 7 3 -3 -1 -15 -8 -27z m22 -11 c0 -5 -5
-10 -11 -10 -5 0 -7 5 -4 10 3 6 8 10 11 10 2 0 4 -4 4 -10z m-2561 -89 c8 -5
16 -20 17 -33 2 -13 0 -17 -2 -10 -3 6 -11 9 -17 5 -7 -4 -5 2 3 12 14 17 13
18 -3 12 -10 -4 -16 -3 -12 2 3 5 -1 12 -7 14 -7 3 -8 6 -3 6 6 0 16 -3 24 -8z
m2551 -25 c0 -2 -7 -7 -16 -10 -8 -3 -12 -2 -9 4 6 10 25 14 25 6z m-25 -54
c-3 -3 -11 0 -18 7 -9 10 -8 11 6 5 10 -3 15 -9 12 -12z m-8 -54 c0 -9 -4 -15
-8 -12 -5 2 -5 12 -2 21 4 9 2 14 -3 10 -6 -3 -11 4 -11 15 -2 20 -2 20 11 2
7 -10 13 -27 13 -36z m-2477 10 c0 -7 -4 -19 -9 -27 -7 -10 -9 -7 -8 12 2 26
17 39 17 15z m1 -51 c-10 -9 -11 -8 -5 6 3 10 9 15 12 12 3 -3 0 -11 -7 -18z
m2454 -6 c-6 -5 -25 10 -25 20 0 5 6 4 14 -3 8 -7 12 -15 11 -17z m-35 -65 c0
-3 -4 -8 -10 -11 -5 -3 -10 -1 -10 4 0 6 5 11 10 11 6 0 10 -2 10 -4z m20 -26
c0 -5 -4 -10 -10 -10 -5 0 -10 5 -10 10 0 6 5 10 10 10 6 0 10 -4 10 -10z
m-2410 -25 c0 -8 -2 -15 -4 -15 -2 0 -6 7 -10 15 -3 8 -1 15 4 15 6 0 10 -7
10 -15z m20 -35 c0 -5 -2 -10 -4 -10 -3 0 -8 5 -11 10 -3 6 -1 10 4 10 6 0 11
-4 11 -10z m2309 -75 c0 -5 -4 -2 -10 8 -6 9 -14 15 -20 12 -5 -3 -6 1 -3 10
6 14 8 14 20 -2 7 -10 13 -22 13 -28z m-2224 -17 c5 4 5 1 1 -5 -4 -7 -17 -18
-29 -23 -19 -10 -20 -9 -5 2 12 10 14 19 6 33 -9 19 -8 19 5 3 8 -10 18 -14
22 -10z m11 -34 c-5 -12 -2 -15 11 -10 14 6 15 5 6 -5 -10 -10 -10 -16 3 -30
12 -14 13 -18 2 -25 -7 -4 -10 -4 -6 1 4 4 -1 19 -12 32 -16 21 -18 53 -3 53
3 0 2 -7 -1 -16z m2182 -29 c4 -4 -4 -4 -17 0 -15 4 -21 3 -17 -3 3 -5 0 -12
-8 -15 -9 -4 -12 -14 -9 -25 2 -11 0 -23 -5 -26 -6 -4 -8 3 -5 16 5 23 5 23
-11 3 -10 -11 -14 -13 -10 -5 4 8 14 23 22 32 7 9 11 21 8 26 -7 12 41 9 52
-3z m-15 -30 c-3 -9 -8 -14 -10 -11 -3 3 -2 9 2 15 9 16 15 13 8 -4z m-2138
-34 c3 -5 0 -13 -6 -17 -7 -4 -9 -3 -5 4 3 5 0 13 -6 15 -9 4 -10 6 -1 6 6 1
14 -3 18 -8z m61 -43 c12 -14 13 -18 3 -10 -9 6 -18 10 -21 7 -2 -3 -5 2 -5
10 0 19 0 19 23 -7z m-1 -38 c-3 -5 -1 -10 6 -10 7 0 10 -3 6 -6 -9 -9 -28 6
-22 17 4 5 8 9 11 9 3 0 2 -4 -1 -10z m69 -49 c-3 -3 -10 3 -16 13 -8 15 -12
16 -19 5 -6 -10 -8 -7 -6 8 l1 23 23 -22 c13 -12 20 -24 17 -27z m1860 24 c-4
-8 -10 -15 -16 -15 -5 0 -6 -5 -3 -10 4 -6 3 -9 -2 -8 -5 2 -20 -8 -33 -21
l-25 -24 24 6 c17 4 21 3 13 -5 -6 -6 -18 -8 -28 -4 -15 6 -11 13 26 51 49 50
52 52 44 30z m36 0 c0 -8 -2 -15 -4 -15 -2 0 -6 7 -10 15 -3 8 -1 15 4 15 6 0
10 -7 10 -15z m-20 -29 c0 -3 -4 -8 -10 -11 -5 -3 -10 -1 -10 4 0 6 5 11 10
11 6 0 10 -2 10 -4z m-1816 -55 c-4 -3 -9 0 -11 7 -7 19 -23 14 -17 -5 5 -14
4 -15 -4 -4 -6 8 -8 20 -5 28 4 11 9 11 24 -3 11 -10 16 -20 13 -23z m1714
-26 c0 -14 -5 -25 -10 -25 -5 0 -7 4 -3 9 3 5 1 12 -4 16 -5 3 -14 -3 -20 -12
-6 -10 -11 -13 -11 -7 0 15 25 36 33 27 4 -3 7 -1 7 5 0 7 2 12 4 12 2 0 4
-11 4 -25z m-1688 11 c0 -2 -8 -10 -17 -17 -16 -13 -17 -12 -4 4 13 16 21 21
21 13z m10 -36 c0 -5 -4 -10 -10 -10 -5 0 -10 5 -10 10 0 6 5 10 10 10 6 0 10
-4 10 -10z m1616 1 c-4 -5 0 -12 6 -15 7 -3 4 -4 -7 -3 -15 1 -19 -3 -18 -18
1 -11 0 -14 -3 -7 -5 10 -12 10 -32 -3 -16 -10 -10 -2 13 19 42 37 50 42 41
27z m-1556 -42 c-6 -10 -13 -19 -16 -19 -2 0 0 8 5 19 6 10 7 22 3 26 -4 5 -1
5 6 1 9 -5 9 -12 2 -27z m-25 11 c3 -6 -1 -7 -9 -4 -18 7 -21 14 -7 14 6 0 13
-4 16 -10z m1549 -29 c3 -5 -1 -11 -9 -14 -9 -4 -12 -1 -8 9 6 16 10 17 17 5z
m-56 -17 c-1 -5 -9 -9 -16 -10 -10 -2 -11 1 -1 12 12 14 24 13 17 -2z m-1408
-4 c0 -5 -4 -10 -10 -10 -5 0 -10 5 -10 10 0 6 5 10 10 10 6 0 10 -4 10 -10z
m55 -20 c3 -5 1 -10 -4 -10 -6 0 -11 5 -11 10 0 6 2 10 4 10 3 0 8 -4 11 -10z
m1320 1 c3 -5 2 -12 -3 -15 -5 -3 -9 1 -9 9 0 17 3 19 12 6z m-30 -11 c-3 -5
-12 -10 -18 -10 -7 0 -6 4 3 10 19 12 23 12 15 0z m-1268 -20 c1 -16 -1 -17
-12 -7 -11 10 -8 19 10 27 1 0 1 -9 2 -20z m58 -18 c-3 -3 -11 0 -18 7 -9 10
-8 11 6 5 10 -3 15 -9 12 -12z m1165 8 c0 -5 -4 -10 -10 -10 -5 0 -10 5 -10
10 0 6 5 10 10 10 6 0 10 -4 10 -10z m40 2 c0 -5 -7 -9 -15 -9 -8 0 -12 4 -9
9 3 4 9 8 15 8 5 0 9 -4 9 -8z m-99 -26 c-9 -11 -9 -15 1 -19 9 -4 9 -6 1 -6
-19 -1 -27 20 -12 30 20 13 23 11 10 -5z m-1094 -18 c-3 -8 -6 -5 -6 6 -1 11
2 17 5 13 3 -3 4 -12 1 -19z m1133 18 c0 -3 -4 -8 -10 -11 -5 -3 -10 -1 -10 4
0 6 5 11 10 11 6 0 10 -2 10 -4z m-102 -57 c-3 -8 -7 -3 -11 10 -4 17 -3 21 5
13 5 -5 8 -16 6 -23z m-44 6 c-4 -8 -8 -15 -10 -15 -2 0 -4 7 -4 15 0 8 4 15
10 15 5 0 7 -7 4 -15z m-804 -10 c0 -2 -6 -5 -13 -8 -8 -3 -14 1 -14 8 0 7 6
11 14 8 7 -3 13 -6 13 -8z m777 -7 c-3 -8 -6 -5 -6 6 -1 11 2 17 5 13 3 -3 4
-12 1 -19z m-755 -22 c7 4 8 2 4 -5 -9 -13 -26 -5 -25 12 0 9 2 8 6 -1 2 -6
10 -9 15 -6z m63 4 c3 -6 -1 -7 -9 -4 -18 7 -21 14 -7 14 6 0 13 -4 16 -10z
m50 -10 c3 -6 -1 -7 -9 -4 -18 7 -21 14 -7 14 6 0 13 -4 16 -10z m502 4 c-3
-3 -12 -4 -19 -1 -8 3 -5 6 6 6 11 1 17 -2 13 -5z m90 -7 c2 -3 -8 -4 -22 -4
-14 0 -25 3 -25 8 0 7 38 4 47 -4z m-660 -3 c-3 -3 -12 -4 -19 -1 -8 3 -5 6 6
6 11 1 17 -2 13 -5z m103 -3 c0 -5 -7 -12 -16 -15 -14 -5 -15 -4 -4 9 14 17
20 19 20 6z m53 -3 c23 4 22 -4 -3 -11 -11 -3 -25 2 -32 11 -11 13 -11 14 2 7
8 -5 23 -8 33 -7z m373 -1 c4 -3 -4 -4 -16 -2 -30 6 -40 16 -12 12 12 -2 24
-6 28 -10z m-131 -7 c-3 -5 -1 -10 4 -10 6 0 11 -5 11 -11 0 -8 -5 -8 -15 1
-13 11 -12 30 1 30 3 0 2 -4 -1 -10z m45 0 c0 -5 -4 -10 -10 -10 -5 0 -10 5
-10 10 0 6 5 10 10 10 6 0 10 -4 10 -10z m136 -2 c3 -4 -1 -5 -10 -4 -8 1 -18
5 -22 8 -3 4 1 5 10 4 8 -1 18 -5 22 -8z m-326 -13 c0 -2 -6 -5 -13 -8 -8 -3
-14 1 -14 8 0 7 6 11 14 8 7 -3 13 -6 13 -8z m58 -5 c-7 -11 -15 -15 -17 -9
-2 6 3 15 10 20 20 12 21 11 7 -11z m57 -9 c-6 -5 -25 10 -25 20 0 5 6 4 14
-3 8 -7 12 -15 11 -17z"/>
<path d="M3103 16543 c15 -2 27 -8 27 -12 0 -14 -72 -86 -114 -115 -21 -14
-34 -26 -28 -26 15 0 112 78 119 96 3 8 11 14 19 14 8 0 14 5 14 11 0 6 6 9
13 6 6 -2 11 -10 10 -16 -2 -6 3 -11 11 -11 8 0 29 -15 48 -33 18 -18 47 -40
63 -50 27 -16 26 -15 -5 10 -47 38 -110 104 -110 116 0 6 19 7 48 4 30 -4 40
-3 27 3 -11 5 -54 8 -95 8 -41 -1 -63 -3 -47 -5z"/>
<path d="M3005 16525 c-39 -17 -21 -18 25 0 19 7 28 14 20 14 -8 0 -28 -6 -45
-14z"/>
<path d="M3328 16500 c34 -16 84 -51 112 -79 28 -28 46 -42 41 -32 -25 45
-162 141 -203 141 -7 0 15 -13 50 -30z"/>
<path d="M2919 16481 c-41 -26 -98 -84 -117 -118 -5 -7 -18 -15 -29 -16 -12 0
-19 -5 -16 -10 3 -4 12 -6 21 -2 9 3 13 3 9 -1 -4 -4 -1 -14 7 -23 8 -9 19
-32 25 -51 l11 -35 -5 34 -5 33 42 -42 c36 -36 158 -110 158 -95 0 2 -23 16
-52 31 -54 27 -59 31 -120 92 -52 51 -50 77 11 140 27 28 63 58 80 66 17 9 31
19 31 21 0 8 -4 6 -51 -24z"/>
<path d="M3116 16475 c-9 -26 -7 -32 5 -12 6 10 9 21 6 23 -2 3 -7 -2 -11 -11z"/>
<path d="M3178 16453 c5 -21 7 -23 10 -9 2 10 0 22 -6 28 -6 6 -7 0 -4 -19z"/>
<path d="M3099 16412 c-3 -20 -2 -29 4 -23 5 5 7 19 5 32 -3 20 -5 19 -9 -9z"/>
<path d="M3190 16400 c0 -11 4 -20 9 -20 5 0 7 9 4 20 -3 11 -7 20 -9 20 -2 0
-4 -9 -4 -20z"/>
<path d="M2935 16375 c-25 -12 -26 -14 -5 -9 14 4 29 10 35 15 12 12 5 11 -30
-6z"/>
<path d="M3355 16369 c22 -10 47 -19 55 -19 11 0 10 -4 -5 -16 -18 -13 -17
-14 13 -8 55 11 75 10 80 -6 3 -8 1 -12 -3 -8 -5 4 -18 -6 -31 -24 -13 -17
-44 -46 -70 -64 -59 -42 -67 -51 -29 -31 17 8 51 34 75 58 33 32 42 37 37 21
-8 -34 1 -26 18 16 19 43 26 37 50 -50 11 -36 14 -42 11 -18 -2 19 -8 44 -11
55 -5 13 8 4 34 -22 40 -40 149 -103 177 -103 7 0 17 -7 21 -14 6 -12 17 -13
45 -7 31 7 36 6 30 -8 -11 -30 -85 -101 -136 -131 -28 -16 -47 -30 -42 -30 17
0 81 43 124 84 43 41 50 39 31 -11 -13 -36 -13 -172 1 -203 10 -24 10 -24 5 4
-11 55 -6 164 10 220 17 59 29 70 40 36 3 -11 12 -20 18 -20 7 -1 32 -18 57
-40 24 -22 47 -37 50 -34 2 3 -4 10 -15 17 -11 6 -44 35 -73 65 l-52 55 45 -6
c25 -4 57 -9 72 -12 25 -5 26 -5 6 4 -13 6 -45 13 -73 17 -43 6 -54 12 -79 45
-32 45 -90 93 -143 120 -56 29 -46 16 15 -20 28 -17 61 -38 72 -48 27 -24 65
-73 65 -84 0 -24 -147 23 -209 65 -32 23 -161 149 -135 134 14 -9 80 -21 73
-13 -11 10 -53 17 -101 16 -26 -1 -71 8 -100 19 -66 25 -76 25 -23 -1z"/>
<path d="M3095 16360 c-3 -5 -1 -10 4 -10 6 0 11 5 11 10 0 6 -2 10 -4 10 -3
0 -8 -4 -11 -10z"/>
<path d="M3195 16360 c3 -5 8 -10 11 -10 2 0 4 5 4 10 0 6 -5 10 -11 10 -5 0
-7 -4 -4 -10z"/>
<path d="M2435 16350 c-3 -5 -1 -10 4 -10 6 0 11 5 11 10 0 6 -2 10 -4 10 -3
0 -8 -4 -11 -10z"/>
<path d="M2850 16350 c-39 -8 -39 -10 9 -17 20 -2 31 -1 27 5 -3 6 0 13 6 15
18 7 0 6 -42 -3z"/>
<path d="M2676 16332 c-2 -4 11 -6 30 -4 19 2 34 6 34 8 0 8 -59 4 -64 -4z"/>
<path d="M3091 16333 c0 -5 4 -17 9 -28 8 -17 8 -16 7 8 -1 15 -5 27 -9 27 -4
0 -8 -3 -7 -7z"/>
<path d="M3199 16333 c0 -5 -3 -26 -5 -48 -3 -21 -3 -37 0 -34 7 7 17 89 11
89 -3 0 -5 -3 -6 -7z"/>
<path d="M3615 16326 c17 -8 32 -12 34 -10 7 6 -2 11 -34 17 l-30 6 30 -13z"/>
<path d="M2950 16305 c30 -14 62 -33 72 -42 10 -9 18 -12 18 -6 0 11 -83 58
-120 67 -14 3 0 -5 30 -19z"/>
<path d="M2579 16287 c-60 -36 -93 -66 -124 -112 -16 -24 -32 -32 -80 -42 -52
-10 -54 -11 -12 -7 29 3 47 1 47 -5 0 -13 -78 -93 -105 -108 -11 -7 -17 -14
-14 -17 9 -9 123 94 131 118 5 17 6 17 7 4 1 -10 6 -18 11 -18 5 0 9 -5 7 -12
-1 -7 3 -12 9 -13 5 0 28 -17 50 -38 34 -33 115 -79 179 -102 16 -6 12 -10
-27 -23 -27 -9 -48 -19 -48 -23 0 -4 15 -2 33 5 17 7 41 17 52 21 29 11 70 11
70 -2 0 -16 -69 -88 -111 -117 -21 -14 -35 -26 -31 -26 15 0 82 50 101 75 20
27 37 33 32 13 -1 -7 -1 -10 1 -6 3 4 4 10 3 13 -1 9 30 38 36 33 2 -3 13 -29
24 -59 11 -30 17 -40 14 -24 -4 17 -8 39 -9 50 -1 11 -5 27 -8 35 -21 55 60
147 175 200 24 11 32 17 18 14 -39 -9 -107 -52 -146 -91 -19 -19 -38 -32 -42
-29 -3 4 -11 -6 -17 -21 l-12 -28 -15 30 c-9 17 -19 50 -23 75 -5 25 -10 40
-12 34 -2 -6 0 -30 6 -53 5 -22 5 -41 1 -41 -5 0 -10 3 -12 8 -2 4 -17 18 -33
31 -17 14 -10 4 15 -21 52 -52 62 -77 28 -72 -104 14 -188 57 -255 128 -52 55
-55 66 -21 66 30 0 140 -40 170 -61 15 -11 28 -16 28 -10 0 11 -90 56 -134 67
-21 5 -24 9 -14 15 8 6 -4 7 -29 3 -27 -4 -43 -3 -43 4 0 24 95 113 152 141
34 17 55 31 47 31 -9 0 -40 -15 -70 -33z m212 -370 c-10 -9 -11 -8 -5 6 3 10
9 15 12 12 3 -3 0 -11 -7 -18z"/>
<path d="M2715 16266 c-27 -28 -61 -59 -75 -69 l-25 -18 24 12 c14 6 47 32 75
58 27 25 47 38 43 29 -3 -9 -8 -34 -11 -55 -5 -33 -4 -31 9 12 32 103 31 104
-40 31z"/>
<path d="M3313 16294 c-24 -14 -43 -27 -43 -30 0 -3 15 4 33 15 18 11 44 25
58 30 13 5 17 10 9 10 -8 1 -34 -11 -57 -25z"/>
<path d="M3101 16270 c0 -8 4 -22 9 -30 12 -18 12 -2 0 25 -6 13 -9 15 -9 5z"/>
<path d="M3216 16222 l-37 -37 5 30 c3 17 -1 8 -10 -18 -14 -45 -17 -47 -29
-30 -8 10 -15 23 -15 30 0 6 -5 15 -12 19 -7 4 -8 3 -4 -4 13 -22 -10 -12 -34
13 -13 14 -25 23 -27 22 -2 -2 17 -25 42 -50 25 -26 45 -49 45 -53 0 -3 -18
-3 -40 0 -23 3 -38 2 -35 -3 3 -5 -3 -12 -12 -14 -11 -3 -8 -5 10 -6 15 0 27
3 27 8 0 6 12 6 29 1 19 -5 33 -4 41 3 7 7 10 8 8 2 -4 -6 15 -11 46 -12 35
-1 45 2 31 7 -20 8 -20 9 1 9 11 1 29 8 40 17 19 15 18 15 -2 5 -33 -16 -114
-24 -114 -12 0 6 20 32 45 58 54 55 55 68 1 15z"/>
<path d="M3470 16239 c0 -2 -4 -19 -9 -37 -5 -17 -6 -32 -1 -32 8 0 21 62 14
69 -2 2 -4 2 -4 0z"/>
<path d="M2830 16190 c0 -16 4 -30 8 -30 5 0 7 14 4 30 -2 17 -6 30 -8 30 -2
0 -4 -13 -4 -30z"/>
<path d="M2585 16170 c-3 -6 1 -7 9 -4 18 7 21 14 7 14 -6 0 -13 -4 -16 -10z"/>
<path d="M3310 16169 c0 -5 5 -7 10 -4 6 3 10 8 10 11 0 2 -4 4 -10 4 -5 0
-10 -5 -10 -11z"/>
<path d="M3557 16159 c4 -13 8 -18 11 -10 2 7 -1 18 -6 23 -8 8 -9 4 -5 -13z"/>
<path d="M2550 16160 c-13 -8 -12 -10 3 -10 9 0 17 5 17 10 0 12 -1 12 -20 0z"/>
<path d="M3030 16149 c0 -5 5 -7 10 -4 6 3 10 8 10 11 0 2 -4 4 -10 4 -5 0
-10 -5 -10 -11z"/>
<path d="M3454 16149 c-3 -6 -2 -15 3 -20 5 -5 9 -1 9 11 0 23 -2 24 -12 9z"/>
<path d="M2835 16140 c-3 -5 -1 -10 4 -10 6 0 11 5 11 10 0 6 -2 10 -4 10 -3
0 -8 -4 -11 -10z"/>
<path d="M3555 16120 c-3 -5 -1 -10 4 -10 6 0 11 5 11 10 0 6 -2 10 -4 10 -3
0 -8 -4 -11 -10z"/>
<path d="M3735 16115 c-25 -12 -26 -14 -5 -9 14 4 29 10 35 15 12 12 5 11 -30
-6z"/>
<path d="M2255 16101 c-22 -11 -35 -19 -30 -19 14 -1 93 36 80 37 -5 0 -28 -8
-50 -18z"/>
<path d="M3083 16062 c-61 -61 -72 -85 -14 -28 22 21 44 35 50 31 6 -3 11 -3
10 2 -1 4 1 16 6 26 13 31 1 24 -52 -31z"/>
<path d="M3150 16110 c0 -5 4 -10 8 -10 4 0 13 -21 20 -46 7 -26 15 -44 18
-42 2 3 0 17 -5 31 -7 17 -7 28 0 32 12 8 4 22 -22 35 -13 7 -19 7 -19 0z"/>
<path d="M3290 16106 c14 -8 27 -12 29 -10 6 6 -1 11 -29 18 l-25 7 25 -15z"/>
<path d="M3462 16080 c0 -19 2 -27 5 -17 2 9 2 25 0 35 -3 9 -5 1 -5 -18z"/>
<path d="M4030 16100 c8 -5 20 -10 25 -10 6 0 3 5 -5 10 -8 5 -19 10 -25 10
-5 0 -3 -5 5 -10z"/>
<path d="M3675 16090 c-3 -5 -2 -10 4 -10 5 0 13 5 16 10 3 6 2 10 -4 10 -5 0
-13 -4 -16 -10z"/>
<path d="M2826 16054 c-4 -20 -5 -38 -3 -40 3 -3 8 11 11 32 4 20 5 38 3 40
-3 3 -8 -11 -11 -32z"/>
<path d="M3350 16081 c0 -5 8 -12 18 -15 29 -10 125 -105 119 -119 -5 -14 -41
-16 -53 -4 -13 12 -26 7 -21 -7 4 -10 -3 -17 -23 -21 -17 -4 -32 -11 -35 -16
-6 -9 -1 -8 50 12 17 6 44 12 62 13 25 1 30 -1 23 -14 -14 -27 -112 -120 -126
-120 -8 0 -14 -5 -14 -10 0 -17 37 7 82 52 22 22 41 38 44 36 2 -3 -1 -20 -6
-39 -6 -18 -10 -43 -9 -54 0 -17 37 105 38 129 1 14 31 -15 31 -31 0 -8 4 -12
8 -9 5 3 24 -9 43 -26 39 -36 118 -88 133 -88 6 0 -11 13 -39 29 -57 33 -148
118 -142 134 4 12 37 18 51 9 6 -3 20 -8 31 -9 15 -2 17 -1 6 6 -11 7 -7 12
15 25 27 15 27 16 4 10 -14 -4 -27 -9 -30 -13 -8 -10 -80 -7 -80 4 0 5 30 38
67 73 36 36 58 60 47 54 -10 -5 -34 -24 -51 -41 -40 -38 -47 -39 -39 -3 4 23
3 22 -10 -7 -9 -19 -16 -43 -17 -53 -2 -30 -21 -15 -40 33 -10 25 -15 32 -12
16 5 -26 4 -27 -15 -15 -11 7 -20 16 -20 20 0 4 -20 21 -45 38 -25 17 -45 27
-45 21z"/>
<path d="M4090 16070 c56 -48 66 -57 80 -65 37 -22 -17 28 -59 57 -25 16 -35
20 -21 8z"/>
<path d="M2395 16059 c-4 -6 -5 -12 -2 -15 2 -3 7 2 10 11 7 17 1 20 -8 4z"/>
<path d="M3215 16051 c24 -28 94 -77 129 -91 41 -15 30 -4 -17 19 -24 12 -52
29 -63 38 -11 10 -31 27 -44 38 l-25 20 20 -24z"/>
<path d="M2462 16045 c0 -11 3 -29 8 -40 11 -25 11 1 0 35 -6 20 -8 21 -8 5z"/>
<path d="M3901 16044 c0 -11 3 -14 6 -6 3 7 2 16 -1 19 -3 4 -6 -2 -5 -13z"/>
<path d="M2378 16000 c-3 -16 -1 -30 4 -30 4 0 8 14 8 30 0 17 -2 30 -4 30 -2
0 -6 -13 -8 -30z"/>
<path d="M3100 16015 c0 -8 2 -15 4 -15 2 0 6 7 10 15 3 8 1 15 -4 15 -6 0
-10 -7 -10 -15z"/>
<path d="M3913 15998 c1 -16 5 -28 9 -28 10 0 9 9 -2 35 -8 17 -8 16 -7 -7z"/>
<path d="M2965 15974 c-22 -13 -36 -24 -32 -24 11 0 87 39 87 45 0 9 -15 3
-55 -21z"/>
<path d="M3195 15960 c2 -23 6 -44 9 -47 3 -3 4 13 2 36 -2 23 -6 44 -9 47 -3
3 -4 -13 -2 -36z"/>
<path d="M2255 15981 c-3 -5 -19 -12 -35 -16 -16 -4 -32 -10 -35 -15 -3 -5 15
-2 40 6 25 9 45 20 45 25 0 12 -7 12 -15 0z"/>
<path d="M3099 15983 c0 -5 -3 -19 -5 -32 -2 -14 -2 -22 1 -19 8 8 17 58 10
58 -3 0 -5 -3 -6 -7z"/>
<path d="M4025 15980 c3 -5 8 -10 11 -10 2 0 4 5 4 10 0 6 -5 10 -11 10 -5 0
-7 -4 -4 -10z"/>
<path d="M4062 15964 c9 -9 21 -15 27 -13 6 2 -2 10 -17 17 -25 11 -25 11 -10
-4z"/>
<path d="M3917 15941 c-2 -10 -1 -25 4 -32 6 -10 9 -4 9 19 0 36 -5 42 -13 13z"/>
<path d="M2474 15921 c0 -16 3 -27 6 -25 7 8 7 54 0 54 -4 0 -7 -13 -6 -29z"/>
<path d="M2868 15940 c-15 -4 -29 -5 -32 -2 -3 3 -6 1 -6 -5 0 -6 9 -13 20
-16 11 -3 20 -1 20 3 0 5 12 13 28 18 32 12 9 14 -30 2z"/>
<path d="M2372 15910 c0 -14 2 -19 5 -12 2 6 2 18 0 25 -3 6 -5 1 -5 -13z"/>
<path d="M2238 15884 c88 -44 205 -154 162 -154 -5 0 -10 -4 -10 -10 0 -5 3
-9 8 -9 20 3 32 -2 27 -12 -4 -6 -9 -8 -11 -6 -3 2 -26 -18 -52 -44 -27 -27
-73 -62 -103 -79 -30 -16 -49 -30 -44 -30 19 0 110 58 139 89 36 38 49 40 36
5 -6 -14 -10 -31 -9 -37 0 -7 8 10 18 37 20 57 33 66 49 34 6 -13 11 -18 11
-11 1 7 18 -5 39 -26 42 -40 112 -86 112 -72 0 5 -13 14 -29 21 -42 17 -131
107 -131 131 0 11 -11 30 -25 43 -13 13 -21 27 -17 31 4 4 1 6 -6 4 -8 -3 -32
13 -55 34 -37 35 -150 98 -174 97 -4 -1 25 -17 65 -36z"/>
<path d="M2880 15918 c8 -8 100 -37 100 -32 0 2 -11 9 -25 14 -34 13 -81 24
-75 18z"/>
<path d="M4080 15903 c-50 -21 -102 -54 -96 -61 3 -3 14 2 24 11 10 10 45 28
78 42 32 13 52 24 44 24 -8 0 -31 -7 -50 -16z"/>
<path d="M3090 15900 c0 -5 5 -10 10 -10 6 0 10 5 10 10 0 6 -4 10 -10 10 -5
0 -10 -4 -10 -10z"/>
<path d="M3650 15900 c8 -5 20 -10 25 -10 6 0 3 5 -5 10 -8 5 -19 10 -25 10
-5 0 -3 -5 5 -10z"/>
<path d="M3193 15877 c-1 -12 -5 -33 -8 -47 -4 -14 -4 -22 0 -18 11 10 24 78
16 82 -4 3 -8 -5 -8 -17z"/>
<path d="M3299 15873 c-13 -15 -12 -15 11 -3 34 17 36 20 18 20 -9 0 -22 -7
-29 -17z"/>
<path d="M3695 15880 c3 -6 12 -10 20 -10 7 0 16 -5 18 -10 3 -6 4 -5 3 1 -1
7 -12 16 -25 20 -14 6 -20 5 -16 -1z"/>
<path d="M2383 15847 c3 -21 8 -41 11 -45 4 -3 4 12 0 34 -8 51 -18 61 -11 11z"/>
<path d="M2457 15819 c-10 -34 -16 -64 -13 -66 2 -3 24 15 48 40 24 24 52 49
63 55 11 6 17 13 15 16 -3 3 -27 -13 -53 -36 -27 -22 -50 -38 -53 -36 -2 3 1
19 7 36 6 17 9 36 7 42 -1 5 -11 -18 -21 -51z"/>
<path d="M2990 15876 c0 -2 14 -14 30 -26 17 -12 30 -18 30 -13 0 5 -13 17
-30 26 -16 10 -30 16 -30 13z"/>
<path d="M2159 15820 c30 -28 60 -50 65 -49 6 0 0 8 -14 17 -14 9 -40 31 -58
49 -19 18 -37 33 -40 33 -4 -1 17 -23 47 -50z"/>
<path d="M2852 15845 c12 -14 25 -25 29 -25 5 0 -2 11 -15 25 -13 14 -26 25
-30 25 -3 0 4 -11 16 -25z"/>
<path d="M3226 15816 c-33 -31 -46 -39 -47 -27 -1 9 -4 5 -8 -9 -11 -39 -34
-30 -46 17 -5 23 -13 45 -17 49 -4 4 -3 -8 2 -27 6 -19 10 -36 10 -38 0 -3
-13 8 -30 24 -41 40 -38 26 5 -19 19 -21 35 -42 35 -48 0 -10 -62 -6 -105 6
-11 4 -6 0 10 -8 27 -13 28 -15 10 -21 -73 -26 -146 -68 -180 -103 -21 -23
-44 -42 -51 -42 -7 0 -14 -7 -18 -15 -3 -9 0 -15 10 -15 8 0 12 5 9 10 -3 6
-2 10 3 10 6 0 30 20 54 44 23 24 62 53 86 65 51 26 158 55 172 46 12 -7 14
-28 3 -23 -5 2 -35 -24 -68 -57 -35 -35 -47 -52 -30 -41 17 11 38 30 48 43 10
13 25 23 32 23 8 0 21 12 29 28 8 15 16 24 17 20 1 -5 3 -12 4 -18 1 -5 3 -18
5 -27 1 -11 3 -13 7 -6 3 9 18 -1 44 -25 34 -34 139 -101 139 -89 0 3 -24 18
-53 35 -65 37 -137 113 -137 146 0 16 19 43 56 80 31 31 54 56 51 56 -3 0 -26
-20 -51 -44z"/>
<path d="M3750 15858 c0 -10 82 -88 92 -88 5 0 6 -4 3 -10 -3 -5 -2 -10 3 -10
10 0 7 -28 -6 -60 -11 -28 -12 -64 -1 -53 6 6 11 20 12 31 2 32 26 36 37 6 6
-14 10 -31 10 -39 0 -8 4 -16 9 -19 4 -3 6 7 3 22 -5 25 -3 24 48 -21 29 -26
55 -45 59 -42 3 4 -3 11 -14 17 -40 22 -115 108 -115 132 0 15 16 41 40 66 47
49 53 66 9 24 l-32 -29 6 40 c5 30 1 25 -14 -24 -19 -58 -21 -61 -34 -45 -8
11 -15 26 -15 34 -1 12 -3 12 -7 2 -4 -10 -19 -1 -49 29 -24 24 -44 41 -44 37z"/>
<path d="M4150 15841 c-8 -10 -33 -30 -54 -45 -21 -14 -34 -26 -29 -26 15 0
103 69 103 80 0 14 -3 12 -20 -9z"/>
<path d="M2026 15833 c-2 -10 -8 -29 -11 -43 -5 -16 -4 -22 3 -15 5 6 12 25
15 43 7 34 2 44 -7 15z"/>
<path d="M3541 15834 c0 -11 3 -14 6 -6 3 7 2 16 -1 19 -3 4 -6 -2 -5 -13z"/>
<path d="M2101 15824 c0 -11 3 -14 6 -6 3 7 2 16 -1 19 -3 4 -6 -2 -5 -13z"/>
<path d="M2745 15818 c-8 -24 -15 -92 -10 -86 4 3 9 21 11 40 3 18 7 39 9 46
2 6 2 12 -1 12 -2 0 -7 -6 -9 -12z"/>
<path d="M4271 15814 c0 -11 3 -14 6 -6 3 7 2 16 -1 19 -3 4 -6 -2 -5 -13z"/>
<path d="M1985 15799 c-4 -6 -5 -12 -2 -15 2 -3 7 2 10 11 7 17 1 20 -8 4z"/>
<path d="M2935 15780 c28 -16 55 -30 60 -29 6 0 -7 9 -27 19 -20 11 -40 24
-43 30 -3 5 -14 10 -23 10 -9 0 6 -14 33 -30z"/>
<path d="M3553 15767 c2 -26 7 -50 11 -54 4 -4 5 15 1 42 -7 63 -16 72 -12 12z"/>
<path d="M2112 15775 c0 -16 2 -22 5 -12 2 9 2 23 0 30 -3 6 -5 -1 -5 -18z"/>
<path d="M4278 15765 c2 -14 6 -25 8 -25 2 0 4 11 4 25 0 14 -4 25 -9 25 -4 0
-6 -11 -3 -25z"/>
<path d="M2242 15764 c3 -3 28 -13 54 -24 48 -18 48 -19 24 -29 -17 -6 -19
-10 -8 -10 9 -1 19 3 23 8 3 6 14 8 25 6 11 -2 20 0 20 6 0 5 -4 9 -10 9 -18
0 -25 2 -75 21 -53 20 -62 22 -53 13z"/>
<path d="M2558 15751 c-26 -10 -50 -16 -54 -12 -4 3 -4 0 0 -7 6 -10 1 -11
-20 -6 -19 5 -25 4 -20 -5 9 -13 56 -15 56 -2 0 5 17 15 38 21 20 7 41 16 47
21 12 12 8 11 -47 -10z"/>
<path d="M3293 15755 c-18 -8 -33 -16 -33 -19 0 -5 71 22 79 30 9 8 -15 3 -46
-11z"/>
<path d="M4005 15750 c-22 -10 -36 -19 -32 -19 12 -1 77 27 77 33 0 7 3 8 -45
-14z"/>
<path d="M2012 15730 c0 -19 2 -27 5 -17 2 9 2 25 0 35 -3 9 -5 1 -5 -18z"/>
<path d="M3457 15693 c3 -32 9 -67 14 -78 6 -14 7 -10 4 15 -3 19 -7 54 -8 77
-1 24 -5 43 -9 43 -3 0 -4 -26 -1 -57z"/>
<path d="M3760 15737 l34 -14 -48 -16 c-58 -20 -132 -66 -167 -103 -23 -26
-23 -26 -1 -13 12 8 22 17 22 20 0 25 183 109 223 103 9 -1 17 2 17 8 0 6 -7
8 -15 4 -8 -3 -15 -2 -15 3 0 4 -6 8 -12 8 -7 0 -26 3 -43 7 -27 6 -27 5 5 -7z"/>
<path d="M3205 15730 c-34 -9 -33 -10 13 -15 23 -2 32 1 32 11 0 15 -1 15 -45
4z"/>
<path d="M3925 15729 c-25 -5 -27 -7 -12 -14 10 -4 20 -5 24 -2 3 4 21 0 40
-8 38 -16 61 -20 49 -7 -4 4 -12 8 -17 8 -5 1 -13 2 -18 3 -5 0 -16 7 -23 14
-8 8 -24 10 -43 6z"/>
<path d="M2835 15720 c3 -5 8 -10 11 -10 2 0 4 5 4 10 0 6 -5 10 -11 10 -5 0
-7 -4 -4 -10z"/>
<path d="M4278 15705 c-3 -14 -1 -25 3 -25 5 0 9 11 9 25 0 14 -2 25 -4 25 -2
0 -6 -11 -8 -25z"/>
<path d="M2730 15706 c0 -8 4 -17 9 -20 5 -4 7 3 4 14 -6 23 -13 26 -13 6z"/>
<path d="M2550 15701 c59 -18 119 -58 178 -118 l63 -63 -32 -40 c-18 -22 -36
-40 -40 -40 -4 0 -10 -8 -13 -17 -5 -13 -1 -12 18 6 13 13 29 20 35 16 10 -5
16 15 12 38 -1 5 6 7 15 5 10 -2 23 -21 30 -43 9 -26 12 -30 8 -10 l-5 30 35
-34 c49 -47 46 -34 -5 18 -22 24 -38 49 -35 57 3 8 -3 18 -14 24 -16 8 -34 51
-54 125 -3 11 -4 4 -2 -15 3 -19 8 -44 12 -55 5 -13 -12 -2 -46 28 -57 52
-137 98 -167 96 -12 0 -10 -3 7 -8z"/>
<path d="M3270 15700 c8 -5 20 -10 25 -10 6 0 3 5 -5 10 -8 5 -19 10 -25 10
-5 0 -3 -5 5 -10z"/>
<path d="M4181 15679 c0 -19 4 -43 9 -54 6 -13 7 -2 3 30 -7 59 -13 72 -12 24z"/>
<path d="M2248 15687 c-16 -6 -28 -15 -28 -19 0 -7 55 16 69 28 7 7 -13 2 -41
-9z"/>
<path d="M2010 15680 c0 -5 5 -10 11 -10 5 0 7 5 4 10 -3 6 -8 10 -11 10 -2 0
-4 -4 -4 -10z"/>
<path d="M2111 15670 c-1 -14 -4 -36 -6 -50 l-6 -25 11 25 c6 13 9 36 7 50
l-4 25 -2 -25z"/>
<path d="M3345 15668 c22 -11 68 -49 102 -83 58 -59 62 -64 50 -88 -6 -14 -14
-24 -17 -22 -3 2 -5 -8 -5 -21 0 -22 1 -23 13 -7 6 9 12 23 12 30 0 28 19 11
34 -29 11 -29 14 -33 10 -13 l-6 30 33 -30 c18 -16 40 -38 51 -47 10 -10 24
-18 31 -18 6 0 4 5 -6 11 -9 6 -36 28 -58 50 -22 21 -45 39 -51 39 -6 0 -8 3
-5 6 3 4 2 14 -3 24 -10 18 -7 18 95 -4 27 -5 26 -5 -5 7 -24 10 -30 16 -20
20 8 3 -4 4 -27 1 -41 -5 -57 6 -33 21 6 4 10 14 9 23 -3 16 5 62 18 106 3 12
1 16 -6 12 -6 -4 -11 -16 -11 -28 0 -11 -7 -44 -16 -74 -12 -44 -18 -51 -29
-41 -7 6 -11 14 -10 17 2 3 0 12 -6 20 -7 12 -9 12 -9 1 0 -7 -22 7 -48 32
-46 42 -101 78 -119 77 -4 -1 10 -10 32 -22z"/>
<path d="M4040 15687 c0 -3 19 -16 43 -30 23 -14 65 -48 92 -76 28 -28 54 -51
58 -51 9 0 37 61 47 107 5 19 4 30 -1 27 -5 -3 -9 -15 -10 -27 0 -12 -9 -40
-19 -62 l-18 -40 -16 35 c-9 21 -15 28 -16 17 0 -15 -8 -10 -39 20 -36 35
-121 91 -121 80z"/>
<path d="M2831 15664 c0 -11 3 -14 6 -6 3 7 2 16 -1 19 -3 4 -6 -2 -5 -13z"/>
<path d="M2155 15619 c-24 -22 -48 -38 -53 -35 -5 3 -17 -14 -27 -37 -10 -23
-24 -57 -32 -75 -8 -19 -12 -36 -9 -39 3 -3 7 0 10 8 16 53 16 53 31 38 7 -8
18 -30 24 -49 l11 -35 -5 35 -5 35 29 -30 c52 -54 91 -80 156 -105 47 -18 25
0 -29 24 -30 14 -80 49 -111 79 -50 48 -56 59 -53 88 2 26 15 44 53 78 69 60
70 61 62 61 -4 0 -27 -18 -52 -41z"/>
<path d="M3784 15629 c-16 -17 -54 -44 -84 -59 -30 -16 -48 -29 -40 -30 28 0
160 96 160 117 0 7 -8 1 -36 -28z"/>
<path d="M2021 15634 c0 -11 3 -14 6 -6 3 7 2 16 -1 19 -3 4 -6 -2 -5 -13z"/>
<path d="M2461 15624 c0 -11 3 -14 6 -6 3 7 2 16 -1 19 -3 4 -6 -2 -5 -13z"/>
<path d="M2825 15625 c-3 -8 -7 -22 -10 -31 -3 -8 -1 -13 4 -10 5 3 11 17 13
31 6 27 0 34 -7 10z"/>
<path d="M3824 15606 c-3 -8 -4 -23 -2 -33 3 -11 6 -6 9 15 6 34 2 42 -7 18z"/>
<path d="M2036 15590 c3 -14 11 -32 16 -40 6 -10 7 -7 2 10 -3 14 -11 32 -16
40 -6 10 -7 7 -2 -10z"/>
<path d="M3101 15588 c0 -14 -4 -35 -7 -45 -5 -17 -5 -17 6 0 6 10 9 30 7 45
l-4 27 -2 -27z"/>
<path d="M3191 15594 c0 -11 3 -14 6 -6 3 7 2 16 -1 19 -3 4 -6 -2 -5 -13z"/>
<path d="M3914 15566 c2 -21 7 -40 11 -44 4 -4 5 10 2 31 -7 50 -17 61 -13 13z"/>
<path d="M2375 15570 c-3 -5 -1 -10 4 -10 6 0 11 5 11 10 0 6 -2 10 -4 10 -3
0 -8 -4 -11 -10z"/>
<path d="M2473 15558 c1 -16 5 -28 9 -28 10 0 9 9 -2 35 -8 17 -8 16 -7 -7z"/>
<path d="M2960 15560 c-19 -11 -30 -19 -24 -20 15 0 64 24 64 33 0 9 1 9 -40
-13z"/>
<path d="M4040 15560 c8 -5 20 -10 25 -10 6 0 3 5 -5 10 -8 5 -19 10 -25 10
-5 0 -3 -5 5 -10z"/>
<path d="M2634 15546 c11 -9 27 -16 35 -15 14 0 14 1 1 6 -8 3 -24 10 -35 15
-20 9 -20 9 -1 -6z"/>
<path d="M2372 15530 c0 -14 2 -19 5 -12 2 6 2 18 0 25 -3 6 -5 1 -5 -13z"/>
<path d="M3195 15540 c3 -5 8 -10 11 -10 2 0 4 5 4 10 0 6 -5 10 -11 10 -5 0
-7 -4 -4 -10z"/>
<path d="M3377 15539 c7 -7 15 -10 18 -7 3 3 -2 9 -12 12 -14 6 -15 5 -6 -5z"/>
<path d="M4090 15540 c8 -5 20 -10 25 -10 6 0 3 5 -5 10 -8 5 -19 10 -25 10
-5 0 -3 -5 5 -10z"/>
<path d="M2153 15533 c-22 -8 -14 -33 10 -32 19 1 19 2 3 6 -15 4 -16 7 -5 13
16 10 10 19 -8 13z"/>
<path d="M2111 15521 c-8 -6 -9 -11 -3 -15 6 -3 14 -1 17 5 9 14 2 20 -14 10z"/>
<path d="M2695 15520 c2 -4 -14 -13 -36 -20 -22 -8 -42 -17 -45 -22 -3 -4 16
0 43 10 26 11 58 18 71 17 12 -1 22 3 22 9 0 6 -13 12 -30 12 -16 1 -28 -2
-25 -6z"/>
<path d="M2834 15518 c-5 -7 0 -9 14 -6 12 3 22 2 24 -2 2 -5 17 -11 33 -14
l30 -6 -28 11 c-15 6 -25 15 -21 20 3 5 -6 9 -20 9 -14 0 -28 -5 -32 -12z"/>
<path d="M3414 15522 c2 -4 -16 -16 -40 -26 -25 -10 -43 -20 -40 -23 2 -3 14
1 26 7 21 11 54 21 78 22 20 2 14 24 -8 25 -11 1 -18 -1 -16 -5z"/>
<path d="M3460 15519 c0 -5 9 -9 20 -9 11 0 20 2 20 4 0 2 -9 6 -20 9 -11 3
-20 1 -20 -4z"/>
<path d="M4139 15521 c7 -5 -5 -13 -31 -21 -54 -18 -125 -59 -163 -95 -20 -18
-23 -24 -9 -17 11 6 27 18 34 27 39 47 240 118 240 84 0 -13 -91 -105 -125
-127 -11 -7 -6 -6 10 2 17 8 41 26 55 41 14 15 36 31 49 36 15 6 21 15 17 24
-4 10 1 15 17 16 12 0 16 3 9 6 -6 2 -10 9 -6 14 3 5 2 9 -3 10 -69 6 -104 6
-94 0z"/>
<path d="M3097 15513 c-7 -11 8 -102 18 -111 4 -4 5 2 2 13 -4 11 -8 39 -9 62
-3 45 -4 48 -11 36z"/>
<path d="M3195 15510 c3 -5 8 -10 11 -10 2 0 4 5 4 10 0 6 -5 10 -11 10 -5 0
-7 -4 -4 -10z"/>
<path d="M4390 15504 c0 -14 3 -14 15 -4 8 7 15 14 15 16 0 2 -7 4 -15 4 -8 0
-15 -7 -15 -16z"/>
<path d="M3818 15503 c-2 -5 -1 -24 3 -43 7 -35 7 -35 6 8 -1 42 -3 48 -9 35z"/>
<path d="M2190 15496 c0 -2 7 -7 16 -10 8 -3 12 -2 9 4 -6 10 -25 14 -25 6z"/>
<path d="M2230 15483 c0 -4 18 -17 40 -27 21 -10 49 -29 61 -42 13 -13 27 -24
32 -24 14 0 -52 56 -95 80 -21 12 -38 18 -38 13z"/>
<path d="M2470 15465 c0 -14 2 -25 4 -25 2 0 6 11 8 25 3 14 1 25 -3 25 -5 0
-9 -11 -9 -25z"/>
<path d="M2940 15486 c0 -2 7 -7 16 -10 8 -3 12 -2 9 4 -6 10 -25 14 -25 6z"/>
<path d="M3194 15476 c-3 -8 -4 -23 -2 -33 3 -11 6 -6 9 15 6 34 2 42 -7 18z"/>
<path d="M3694 15469 c42 -23 46 -26 90 -64 16 -14 32 -25 35 -25 3 1 -12 17
-34 36 -38 34 -105 74 -122 74 -4 -1 10 -10 31 -21z"/>
<path d="M4251 15460 c14 -31 19 -36 19 -24 0 6 -7 19 -16 30 -14 18 -14 18
-3 -6z"/>
<path d="M4398 15445 c2 -19 7 -35 11 -35 10 0 6 49 -5 60 -7 7 -9 -2 -6 -25z"/>
<path d="M2381 15434 c6 -21 13 -41 16 -44 9 -9 -9 65 -18 74 -4 5 -3 -8 2
-30z"/>
<path d="M2547 15443 c-20 -16 -36 -32 -37 -37 0 -6 12 2 28 16 15 14 36 30
47 36 11 6 15 12 9 12 -6 0 -27 -12 -47 -27z"/>
<path d="M2985 15460 c3 -5 8 -10 11 -10 2 0 4 5 4 10 0 6 -5 10 -11 10 -5 0
-7 -4 -4 -10z"/>
<path d="M3274 15448 c-16 -13 -41 -35 -56 -50 -34 -35 -40 -35 -33 0 2 15 -2
7 -10 -17 -8 -25 -12 -47 -9 -50 4 -3 9 0 11 7 6 16 85 90 121 114 15 10 22
18 16 18 -6 0 -24 -10 -40 -22z"/>
<path d="M3405 15409 c-32 -27 -65 -49 -72 -49 -7 0 -13 -5 -13 -11 0 -15 56
20 109 68 62 57 50 53 -24 -8z"/>
<path d="M3025 15435 c11 -8 43 -38 72 -67 l52 -51 -21 -31 c-27 -39 -97 -104
-120 -112 -10 -3 -18 -10 -18 -15 0 -13 47 18 89 58 18 18 37 30 41 28 4 -3
10 4 13 15 3 11 13 20 22 20 9 0 13 -4 10 -10 -3 -5 -2 -10 2 -10 5 0 10 -10
11 -22 3 -32 20 -86 21 -68 1 8 -3 30 -8 48 -6 20 -6 32 0 32 6 0 2 11 -8 24
-10 13 -22 21 -27 18 -5 -3 -6 0 -3 5 4 6 18 8 32 5 14 -2 25 0 25 6 0 6 -8 9
-18 7 -23 -4 -68 36 -64 58 2 9 -2 17 -8 17 -6 0 -8 -4 -5 -10 13 -20 -5 -9
-47 30 -24 22 -47 40 -53 40 -5 -1 -1 -7 10 -15z"/>
<path d="M2454 15393 c-4 -21 -7 -41 -6 -45 3 -14 -26 -8 -31 6 -3 7 -15 16
-27 19 l-22 6 21 -23 c29 -30 27 -47 -4 -42 -14 3 -25 0 -25 -5 0 -5 11 -9 25
-9 14 0 25 -2 25 -5 0 -3 -11 -18 -25 -33 -14 -15 -25 -31 -25 -37 0 -5 5 -2
11 8 5 9 15 17 20 17 6 0 7 -5 3 -12 -4 -7 -3 -8 4 -4 7 4 12 13 12 21 0 21
19 28 35 12 8 -8 12 -17 9 -19 -2 -3 0 -16 6 -29 10 -24 10 -24 7 4 -3 15 1
27 7 27 6 0 3 7 -7 14 -10 8 -18 18 -18 22 -1 11 34 23 46 16 6 -4 19 -8 30
-9 85 -14 245 -136 245 -188 0 -36 -89 -124 -166 -164 -32 -16 -55 -30 -50
-31 20 -1 128 65 163 101 21 21 44 39 52 39 7 0 11 6 8 14 -3 8 1 17 9 20 8 3
13 2 9 -3 -3 -5 -1 -11 3 -13 5 -1 16 -30 25 -63 10 -36 14 -45 11 -22 -3 21
-8 46 -11 55 -3 9 14 -2 37 -26 24 -24 77 -59 119 -79 42 -20 77 -40 79 -44 2
-5 16 -6 32 -3 42 9 77 -19 85 -67 4 -21 11 -41 15 -44 5 -3 5 9 -1 27 -5 18
-9 34 -9 36 0 2 23 -17 52 -42 29 -25 54 -43 57 -40 3 3 -3 10 -14 17 -21 11
-79 68 -105 100 -13 18 -12 19 36 14 27 -3 58 -8 69 -12 11 -3 7 1 -10 9 -27
13 -28 15 -10 21 48 16 75 28 73 31 -6 6 -103 -30 -110 -40 -5 -8 -8 -7 -8 1
0 7 -6 10 -14 7 -34 -13 -23 20 24 67 27 29 48 54 47 56 -2 1 -19 -13 -37 -32
-42 -43 -51 -44 -39 -3 14 50 9 59 -6 10 -8 -24 -12 -49 -9 -56 3 -9 -3 -13
-17 -12 -19 1 -26 12 -41 56 -10 31 -15 40 -11 20 3 -19 6 -43 5 -53 0 -10 5
-20 13 -23 23 -9 5 -34 -21 -30 -14 3 -24 0 -24 -7 0 -8 -3 -8 -8 -2 -4 6 -38
24 -75 39 -81 34 -194 133 -184 161 5 11 3 14 -6 9 -8 -6 -8 -3 1 9 8 9 11 21
7 27 -3 5 -1 10 4 10 6 0 28 18 50 40 21 22 41 40 44 40 4 0 23 11 43 25 20
14 32 25 27 25 -6 0 -22 -9 -36 -20 -14 -11 -29 -20 -34 -20 -5 0 -27 -18 -48
-40 -21 -22 -45 -40 -53 -40 -8 0 -12 -6 -8 -15 4 -10 -1 -15 -15 -15 -11 0
-18 3 -16 8 2 4 -4 30 -14 57 -11 28 -17 38 -14 23 3 -14 8 -34 12 -45 5 -14
0 -12 -23 8 -16 14 -40 35 -53 47 -26 23 -94 57 -135 68 -28 7 -34 20 -13 27
16 5 -43 -3 -65 -9 -23 -7 -24 19 -2 36 8 8 20 23 25 34 9 18 7 18 -10 -3 -23
-25 -27 -17 -11 23 5 14 6 26 1 26 -5 0 -12 -17 -17 -37z m-14 -87 c0 -3 -4
-8 -10 -11 -5 -3 -10 -1 -10 4 0 6 5 11 10 11 6 0 10 -2 10 -4z m715 -405 c-3
-6 -11 -11 -16 -11 -5 0 -4 6 3 14 14 16 24 13 13 -3z"/>
<path d="M2746 15415 c-3 -9 -6 -26 -5 -38 1 -14 4 -9 9 13 9 37 7 52 -4 25z"/>
<path d="M3898 15385 c-7 -25 -15 -45 -18 -45 -14 1 -27 18 -38 50 -8 24 -10
26 -7 8 4 -19 1 -28 -7 -28 -8 -1 -5 -8 7 -18 11 -9 20 -23 19 -29 -1 -7 -2
-19 -3 -26 -2 -24 -85 -104 -141 -136 -30 -17 -51 -31 -46 -31 18 0 112 60
140 89 17 17 36 31 43 31 8 0 12 4 8 9 -9 16 15 24 31 10 8 -6 12 -14 10 -16
-2 -3 0 -18 6 -34 6 -17 12 -28 14 -26 3 2 0 16 -5 31 -14 36 -1 33 41 -12 34
-37 123 -90 133 -80 3 2 -17 14 -44 27 -28 12 -72 46 -102 78 -48 50 -51 57
-34 63 11 4 28 3 38 -2 11 -5 17 -5 17 2 0 5 15 17 33 25 l32 14 -30 -6 c-16
-3 -34 -8 -39 -11 -12 -7 -66 -11 -66 -5 0 2 5 14 11 26 11 20 20 87 12 87 -2
0 -8 -20 -15 -45z m-8 -79 c0 -2 -7 -7 -16 -10 -8 -3 -12 -2 -9 4 6 10 25 14
25 6z"/>
<path d="M3466 15399 c-15 -64 -11 -153 10 -222 5 -18 0 -16 -32 14 -44 41
-117 89 -136 89 -7 0 5 -10 27 -21 76 -40 169 -129 152 -145 -8 -8 -40 -7 -61
1 -14 6 -17 5 -12 -3 4 -7 0 -14 -11 -18 -37 -12 -114 -48 -120 -57 -3 -4 17
3 43 16 52 26 93 39 134 42 14 1 25 3 25 4 0 9 42 7 62 -2 19 -9 26 -8 34 4 6
10 9 10 9 2 0 -7 5 -13 12 -13 6 0 8 3 4 7 -3 4 6 13 21 20 25 12 26 12 3 6
-14 -3 -33 -6 -42 -5 -10 0 -18 -3 -18 -8 0 -4 -9 -6 -20 -3 -22 6 -22 22 0
41 11 10 12 12 1 6 -10 -5 -13 -3 -8 9 7 18 19 98 13 82 -2 -5 -12 -36 -21
-67 -10 -32 -21 -55 -26 -52 -11 7 -37 98 -42 150 -2 23 -1 64 3 90 8 51 5 73
-4 33z"/>
<path d="M4275 15370 c4 -30 9 -57 12 -60 3 -3 2 20 -1 49 -4 30 -9 57 -12 60
-3 4 -3 -19 1 -49z"/>
<path d="M2022 15390 c0 -14 2 -19 5 -12 2 6 2 18 0 25 -3 6 -5 1 -5 -13z"/>
<path d="M2671 15396 c-7 -8 -35 -25 -62 -37 -27 -13 -47 -24 -45 -26 5 -5 85
33 110 52 11 8 17 17 14 20 -3 3 -11 -1 -17 -9z"/>
<path d="M4180 15385 c0 -14 2 -25 4 -25 2 0 6 11 8 25 3 14 1 25 -3 25 -5 0
-9 -11 -9 -25z"/>
<path d="M2900 15392 c0 -9 60 -46 64 -40 2 1 -12 13 -30 25 -19 12 -34 19
-34 15z"/>
<path d="M3550 15380 c0 -11 4 -20 9 -20 5 0 7 9 4 20 -3 11 -7 20 -9 20 -2 0
-4 -9 -4 -20z"/>
<path d="M2112 15370 c0 -14 2 -19 5 -12 2 6 2 18 0 25 -3 6 -5 1 -5 -13z"/>
<path d="M2833 15352 c0 -12 5 -22 9 -22 11 0 10 12 -2 30 -7 12 -9 10 -7 -8z"/>
<path d="M3670 15362 c0 -8 61 -34 67 -29 1 2 -13 11 -32 20 -19 9 -35 13 -35
9z"/>
<path d="M2011 15308 c1 -55 5 -50 11 15 2 20 0 37 -4 37 -4 0 -7 -24 -7 -52z"/>
<path d="M4035 15350 c-3 -5 -2 -10 4 -10 5 0 13 5 16 10 3 6 2 10 -4 10 -5 0
-13 -4 -16 -10z"/>
<path d="M2985 15340 c3 -5 11 -10 16 -10 6 0 7 5 4 10 -3 6 -11 10 -16 10 -6
0 -7 -4 -4 -10z"/>
<path d="M3283 15340 c-13 -5 -23 -11 -23 -14 0 -7 40 6 46 15 6 10 6 10 -23
-1z"/>
<path d="M4173 15329 c-2 -23 3 -25 10 -4 4 8 3 16 -1 19 -4 3 -9 -4 -9 -15z"/>
<path d="M3020 15336 c0 -20 104 -45 114 -28 3 5 -13 9 -35 10 -22 1 -49 7
-60 12 -10 6 -19 8 -19 6z"/>
<path d="M2330 15321 c12 -8 10 -12 -10 -20 l-25 -11 25 3 c27 2 34 28 10 34
-13 4 -13 3 0 -6z"/>
<path d="M3233 15323 c-7 -2 -13 -12 -13 -21 0 -15 2 -15 10 -2 5 8 10 10 10
4 0 -7 11 -14 25 -16 32 -7 32 0 -1 12 -14 6 -22 14 -19 20 7 11 6 11 -12 3z"/>
<path d="M3770 15316 c28 -17 66 -21 74 -7 3 5 -7 9 -22 9 -15 0 -38 3 -52 7
l-25 6 25 -15z"/>
<path d="M2111 15304 c0 -11 3 -14 6 -6 3 7 2 16 -1 19 -3 4 -6 -2 -5 -13z"/>
<path d="M2730 15304 c0 -8 5 -12 10 -9 6 4 8 11 5 16 -9 14 -15 11 -15 -7z"/>
<path d="M2839 15313 c0 -5 -2 -16 -4 -26 -2 -11 -1 -16 3 -13 8 8 14 46 7 46
-3 0 -5 -3 -6 -7z"/>
<path d="M3554 15295 c3 -23 12 -26 13 -5 1 11 -2 20 -7 20 -4 0 -7 -7 -6 -15z"/>
<path d="M3015 15290 c-13 -5 -14 -9 -5 -9 8 0 24 4 35 9 13 5 14 9 5 9 -8 0
-24 -4 -35 -9z"/>
<path d="M3748 15293 c6 -2 18 -2 25 0 6 3 1 5 -13 5 -14 0 -19 -2 -12 -5z"/>
<path d="M3970 15298 c3 -3 21 -10 40 -17 19 -6 30 -7 25 -2 -6 5 -23 13 -40
17 -16 4 -28 5 -25 2z"/>
<path d="M2230 15264 c-25 -15 -65 -45 -89 -68 l-43 -41 6 35 6 35 -16 -40
c-9 -22 -16 -46 -17 -52 -1 -22 -7 -15 -27 30 -23 50 -27 36 -5 -17 9 -21 22
-36 33 -37 13 0 12 -2 -5 -9 -13 -5 -23 -14 -23 -19 0 -5 -2 -18 -5 -28 -3
-10 1 -4 9 12 8 17 15 24 16 17 0 -7 5 -10 12 -6 7 5 9 2 6 -7 -3 -8 1 -30 8
-49 l13 -35 -5 40 c-3 22 -8 48 -11 58 -4 15 0 17 21 11 16 -4 26 -2 26 5 0 6
-11 11 -25 11 -14 0 -25 5 -25 11 0 21 86 101 145 135 33 18 56 34 50 34 -5 0
-30 -12 -55 -26z"/>
<path d="M3691 15274 c-19 -8 -32 -17 -29 -19 5 -5 68 23 68 31 0 5 0 5 -39
-12z"/>
<path d="M4177 15255 c7 -49 13 -58 13 -19 0 16 -5 36 -10 44 -6 10 -7 2 -3
-25z"/>
<path d="M2110 15256 c0 -31 6 -34 13 -6 3 11 1 23 -4 26 -5 3 -9 -6 -9 -20z"/>
<path d="M2736 15267 c3 -10 9 -15 12 -12 3 3 0 11 -7 18 -10 9 -11 8 -5 -6z"/>
<path d="M4055 15260 c3 -5 13 -10 20 -10 18 0 135 -113 135 -130 0 -12 -54
-10 -95 5 -13 4 -11 1 5 -9 l25 -14 -28 -11 c-16 -6 -32 -11 -37 -11 -5 0 -12
-4 -15 -10 -3 -5 13 -3 36 5 23 8 51 15 63 15 12 0 32 7 45 16 23 16 23 16 11
-7 -7 -13 -24 -36 -38 -51 -14 -16 -22 -28 -17 -28 4 0 14 8 22 18 13 15 14
14 8 -13 -8 -42 -16 -112 -11 -100 2 6 10 37 17 70 7 33 16 65 20 71 13 17 60
146 55 151 -2 2 -10 -15 -18 -39 -9 -26 -22 -44 -33 -46 -9 -2 -15 0 -12 5 3
4 -1 22 -9 38 -8 17 -12 22 -9 13 5 -19 -10 -25 -20 -8 -10 17 -106 90 -116
90 -6 0 -7 -4 -4 -10z"/>
<path d="M4276 15255 c-9 -26 -7 -32 5 -12 6 10 9 21 6 23 -2 3 -7 -2 -11 -11z"/>
<path d="M2828 15235 c-4 -16 -9 -39 -12 -50 -4 -11 1 -5 9 14 9 18 14 41 13
50 -2 9 -7 3 -10 -14z"/>
<path d="M2022 15230 c0 -14 2 -19 5 -12 2 6 2 18 0 25 -3 6 -5 1 -5 -13z"/>
<path d="M3600 15208 c-25 -22 -36 -34 -25 -27 11 8 26 20 33 26 7 7 21 17 30
22 9 5 14 12 12 15 -3 3 -26 -13 -50 -36z"/>
<path d="M2492 15230 c5 -19 124 -100 146 -100 10 1 4 7 -13 14 -39 17 -104
62 -122 84 -11 13 -13 13 -11 2z"/>
<path d="M3226 15213 c35 -32 114 -83 128 -83 6 0 -11 13 -39 29 -27 16 -61
41 -74 55 -14 14 -29 26 -34 26 -6 0 3 -12 19 -27z"/>
<path d="M2312 15190 c-19 -15 -54 -36 -79 -45 -24 -9 -42 -19 -40 -22 7 -6
107 43 136 67 13 11 22 22 20 24 -2 2 -19 -9 -37 -24z"/>
<path d="M2386 15203 c-3 -10 -7 -36 -10 -58 -4 -31 -2 -27 9 15 8 30 12 56
10 58 -2 2 -6 -5 -9 -15z"/>
<path d="M3826 15198 c-3 -13 -5 -36 -5 -53 1 -21 4 -15 10 20 8 52 6 72 -5
33z"/>
<path d="M3104 15185 c-3 -8 -4 -20 -2 -27 3 -7 7 -1 10 15 6 29 1 36 -8 12z"/>
<path d="M2471 15174 c0 -11 3 -14 6 -6 3 7 2 16 -1 19 -3 4 -6 -2 -5 -13z"/>
<path d="M3911 15169 c0 -8 4 -23 9 -34 8 -17 9 -16 7 7 -3 28 -18 53 -16 27z"/>
<path d="M2473 15132 c2 -12 6 -24 10 -28 3 -4 4 4 2 16 -6 30 -16 40 -12 12z"/>
<path d="M4391 15134 c0 -11 3 -14 6 -6 3 7 2 16 -1 19 -3 4 -6 -2 -5 -13z"/>
<path d="M2883 15121 c-59 -18 -69 -30 -23 -29 17 1 28 4 24 7 -3 3 12 13 33
23 47 21 34 21 -34 -1z"/>
<path d="M2680 15116 c24 -14 24 -15 5 -21 -52 -16 -147 -70 -181 -103 -21
-20 -42 -37 -48 -37 -5 0 -10 -8 -12 -18 -3 -22 -14 -36 -14 -18 0 7 -4 9 -10
6 -6 -3 -10 4 -11 17 0 13 -5 32 -10 43 -7 16 -8 14 -4 -9 6 -28 5 -28 -49 21
-52 48 -130 93 -160 93 -20 0 -29 17 -14 23 8 3 6 6 -4 6 -29 1 -21 -28 10
-35 72 -18 168 -87 230 -167 15 -20 16 -30 0 -21 -7 5 -8 3 -4 -5 5 -7 1 -20
-9 -31 -9 -10 -12 -21 -7 -24 6 -3 8 -16 6 -29 -2 -12 3 -3 12 21 9 24 21 41
28 39 6 -3 10 -10 8 -16 -1 -6 6 -14 15 -18 10 -4 37 -23 60 -43 40 -35 88
-62 158 -90 28 -12 29 -13 10 -21 -15 -7 -12 -8 10 -3 56 11 75 11 75 0 0 -11
-75 -91 -115 -122 -19 -14 -19 -15 5 -3 14 6 39 27 56 45 32 34 50 44 39 22
-4 -7 1 -4 9 6 9 11 16 23 16 28 0 23 20 3 30 -29 7 -21 17 -42 22 -48 5 -5 4
3 -1 18 -14 35 -14 58 -1 37 5 -8 11 -12 14 -9 3 2 -11 22 -30 43 -21 23 -28
36 -17 31 10 -4 29 -9 43 -10 14 -2 34 -6 45 -10 l20 -8 -20 16 c-14 12 -16
16 -6 17 8 0 12 2 10 5 -3 2 -19 1 -36 -4 -49 -14 -54 5 -14 47 46 49 114 96
169 118 24 9 41 19 38 21 -10 11 -136 -60 -180 -101 -41 -38 -47 -41 -42 -20
14 57 15 77 2 39 -8 -22 -15 -47 -15 -56 -1 -9 -7 -22 -15 -28 -11 -9 -15 -6
-20 14 -4 14 -13 25 -21 25 -19 0 -19 -14 0 -30 9 -7 14 -18 12 -23 -3 -11
-67 -16 -67 -5 0 3 -15 9 -32 13 -82 17 -218 128 -218 178 0 60 146 175 245
192 47 9 86 29 43 22 -15 -2 -29 -1 -30 3 -2 4 -14 10 -28 14 l-25 7 25 -15z"/>
<path d="M3370 15126 c0 -2 7 -7 16 -10 8 -3 12 -2 9 4 -6 10 -25 14 -25 6z"/>
<path d="M3090 15105 c0 -8 4 -15 10 -15 5 0 7 7 4 15 -4 8 -8 15 -10 15 -2 0
-4 -7 -4 -15z"/>
<path d="M3196 15095 c-3 -8 -1 -15 4 -15 6 0 10 7 10 15 0 8 -2 15 -4 15 -2
0 -6 -7 -10 -15z"/>
<path d="M3810 15100 c0 -5 5 -10 10 -10 6 0 10 5 10 10 0 6 -4 10 -10 10 -5
0 -10 -4 -10 -10z"/>
<path d="M3915 15100 c3 -5 8 -10 11 -10 2 0 4 5 4 10 0 6 -5 10 -11 10 -5 0
-7 -4 -4 -10z"/>
<path d="M3494 15085 c-10 -8 -15 -15 -11 -15 9 0 -83 -83 -119 -106 -13 -9
-22 -19 -20 -22 6 -6 85 56 109 86 10 12 23 20 27 17 5 -3 14 3 20 14 10 19
14 17 67 -34 56 -53 125 -97 173 -109 14 -4 -2 6 -35 22 -66 32 -143 95 -164
136 -17 30 -20 31 -47 11z"/>
<path d="M2472 15059 c-1 -16 -1 -29 2 -29 7 0 13 50 7 55 -4 2 -8 -10 -9 -26z"/>
<path d="M2965 15055 c38 -19 85 -50 104 -68 29 -27 31 -28 15 -6 -20 29 -89
76 -139 96 -58 23 -49 13 20 -22z"/>
<path d="M3630 15083 c58 -21 123 -62 168 -106 64 -63 67 -78 12 -71 -33 5
-39 3 -34 -9 4 -11 15 -14 42 -10 42 6 62 -10 80 -62 7 -21 11 -24 11 -11 1
18 4 17 31 -9 17 -16 30 -23 30 -17 0 7 -3 12 -7 12 -5 0 -27 22 -50 49 -28
32 -37 48 -25 46 63 -13 82 -14 79 -4 -1 6 18 17 43 26 50 17 154 82 145 91
-3 3 -15 -4 -28 -15 -57 -53 -237 -115 -237 -83 0 17 118 130 135 130 8 0 15
5 15 10 0 16 -36 -6 -85 -51 -47 -43 -57 -48 -49 -21 5 16 5 16 -6 -1 -6 -9
-8 -22 -5 -27 3 -6 1 -10 -4 -10 -6 0 -10 -5 -8 -11 1 -6 -4 -14 -11 -16 -7
-3 -12 -1 -11 4 4 15 -13 63 -22 63 -5 0 -5 -8 -2 -17 4 -10 -15 2 -40 27 -48
46 -139 100 -167 99 -13 -1 -13 -1 0 -6z"/>
<path d="M2372 15070 c0 -8 4 -26 8 -40 6 -20 8 -21 8 -5 0 11 -3 29 -8 40 -5
12 -8 14 -8 5z"/>
<path d="M3096 15067 c3 -10 9 -15 12 -12 3 3 0 11 -7 18 -10 9 -11 8 -5 -6z"/>
<path d="M3822 15050 c0 -19 2 -27 5 -17 2 9 2 25 0 35 -3 9 -5 1 -5 -18z"/>
<path d="M3190 15060 c0 -5 5 -10 10 -10 6 0 10 5 10 10 0 6 -4 10 -10 10 -5
0 -10 -4 -10 -10z"/>
<path d="M4252 15045 c6 -14 13 -24 14 -22 6 6 -9 47 -17 47 -5 0 -3 -11 3
-25z"/>
<path d="M2110 15046 c0 -22 96 -95 163 -124 49 -21 28 -3 -28 24 -30 15 -73
45 -95 68 -22 22 -40 36 -40 32z"/>
<path d="M3910 15039 c0 -5 5 -7 10 -4 6 3 10 8 10 11 0 2 -4 4 -10 4 -5 0
-10 -5 -10 -11z"/>
<path d="M3536 15027 c3 -10 9 -15 12 -12 3 3 0 11 -7 18 -10 9 -11 8 -5 -6z"/>
<path d="M2025 15000 c-4 -17 -5 -34 -2 -36 2 -3 7 10 11 27 8 42 0 50 -9 9z"/>
<path d="M3465 14990 c-10 -62 -14 -120 -7 -120 4 0 8 24 9 53 1 29 7 65 12
80 6 15 7 27 2 27 -5 0 -12 -18 -16 -40z"/>
<path d="M2458 14997 c-3 -19 -2 -25 4 -19 6 6 8 18 6 28 -3 14 -5 12 -10 -9z"/>
<path d="M2744 14983 c-3 -16 -8 -35 -10 -43 -3 -10 -2 -11 4 -5 10 11 24 75
17 75 -3 0 -7 -12 -11 -27z"/>
<path d="M4270 14980 c5 -18 12 -35 16 -39 9 -9 -7 53 -17 63 -5 5 -4 -5 1
-24z"/>
<path d="M3550 14974 c0 -14 4 -23 9 -20 5 3 7 15 4 26 -7 28 -13 25 -13 -6z"/>
<path d="M2110 14938 c0 -23 3 -29 9 -19 8 12 4 51 -5 51 -2 0 -4 -15 -4 -32z"/>
<path d="M2010 14934 c0 -8 5 -12 10 -9 6 4 8 11 5 16 -9 14 -15 11 -15 -7z"/>
<path d="M3555 14930 c-3 -5 -1 -10 4 -10 6 0 11 5 11 10 0 6 -2 10 -4 10 -3
0 -8 -4 -11 -10z"/>
<path d="M4278 14894 c-2 -19 -1 -37 2 -39 3 -2 7 14 8 36 3 49 -4 52 -10 3z"/>
<path d="M2324 14909 c15 -9 16 -13 5 -20 -10 -6 -6 -8 11 -5 14 3 31 5 38 5
6 1 12 5 12 10 0 5 -11 8 -25 6 -14 -1 -28 2 -31 6 -3 5 -11 9 -17 9 -7 0 -4
-5 7 -11z"/>
<path d="M2515 14911 c-11 -5 -28 -7 -37 -5 -10 1 -18 -1 -18 -5 0 -4 23 -13
51 -19 65 -15 113 -38 164 -76 38 -28 39 -28 16 -4 -24 28 -106 72 -154 83
-26 7 -26 8 -10 21 20 15 17 16 -12 5z"/>
<path d="M2731 14904 c0 -11 3 -14 6 -6 3 7 2 16 -1 19 -3 4 -6 -2 -5 -13z"/>
<path d="M2012 14890 c0 -14 2 -19 5 -12 2 6 2 18 0 25 -3 6 -5 1 -5 -13z"/>
<path d="M3556 14895 c-3 -8 -1 -15 4 -15 6 0 10 7 10 15 0 8 -2 15 -4 15 -2
0 -6 -7 -10 -15z"/>
<path d="M4179 14903 c-4 -30 4 -90 13 -98 7 -7 9 -7 5 1 -3 5 -7 31 -8 57 -2
42 -7 61 -10 40z"/>
<path d="M3706 14864 c-64 -32 -104 -61 -138 -99 -18 -19 -28 -24 -29 -15 0 8
-4 4 -10 -8 -18 -46 -35 -22 -59 83 l-9 40 4 -40 c2 -22 7 -50 11 -62 5 -19
-2 -15 -37 18 -24 22 -52 45 -63 51 -12 5 -3 -5 19 -23 55 -47 96 -92 92 -103
-4 -11 -57 -15 -57 -4 0 4 -4 8 -10 8 -5 0 -7 -6 -4 -13 3 -9 -10 -18 -38 -26
-42 -13 -95 -41 -121 -64 -77 -70 -80 -72 -73 -52 5 15 4 17 -4 9 -6 -6 -12
-21 -13 -33 -2 -29 -31 -23 -35 7 -2 12 -8 19 -14 16 -5 -3 -24 7 -41 23 -38
35 -92 73 -104 73 -4 0 10 -12 32 -28 55 -37 81 -61 112 -101 l26 -34 -41 6
c-23 3 -40 1 -37 -3 3 -5 -7 -13 -22 -19 l-28 -11 30 6 c67 13 76 14 86 8 5
-3 -17 -32 -51 -65 -33 -33 -60 -62 -60 -64 0 -7 38 25 71 60 19 20 29 25 29
15 1 -8 8 -2 16 13 19 35 30 28 39 -23 4 -22 11 -42 15 -45 5 -3 5 9 0 27 -6
17 -8 33 -7 35 2 1 21 -15 42 -37 22 -22 43 -40 48 -40 6 0 -10 17 -34 39 -24
21 -51 50 -58 64 -8 15 -18 24 -23 21 -4 -3 -8 0 -8 5 0 12 13 14 24 4 11 -11
56 -15 56 -4 0 5 8 12 18 15 9 2 -4 2 -30 -1 -57 -6 -60 3 -15 50 55 58 122
103 173 117 27 7 54 16 59 20 12 9 52 7 61 -3 4 -4 2 -7 -4 -7 -7 0 -12 -7
-12 -15 0 -8 -9 -19 -21 -25 -30 -16 -18 -22 14 -7 15 6 25 17 23 24 -3 6 0
14 7 16 7 2 21 -19 34 -52 12 -31 22 -51 22 -44 1 6 -3 23 -9 37 -13 36 -1 32
41 -12 39 -40 119 -90 119 -74 0 6 -11 13 -25 16 -13 3 -51 31 -83 61 -33 30
-61 52 -64 50 -3 -3 -5 13 -6 34 -2 36 3 44 56 93 32 29 87 67 122 85 36 18
61 32 55 32 -5 0 -32 -11 -59 -25z"/>
<path d="M3980 14884 c0 -7 52 -25 57 -20 2 2 -10 8 -26 14 -17 6 -31 9 -31 6z"/>
<path d="M2736 14867 c3 -10 9 -15 12 -12 3 3 0 11 -7 18 -10 9 -11 8 -5 -6z"/>
<path d="M2837 14873 c-10 -9 -9 -23 1 -23 5 0 9 7 9 15 0 17 -1 18 -10 8z"/>
<path d="M3803 14822 c-64 -66 -70 -83 -9 -23 24 24 45 38 47 32 2 -6 9 1 16
14 19 42 0 34 -54 -23z"/>
<path d="M3096 14834 c-33 -40 -119 -99 -159 -109 -24 -6 -48 -25 -32 -25 36
0 220 127 233 161 8 21 -15 6 -42 -27z"/>
<path d="M3304 14861 c3 -5 16 -11 28 -14 22 -6 22 -5 4 8 -22 17 -40 20 -32
6z"/>
<path d="M3555 14860 c-3 -5 -1 -10 4 -10 6 0 11 5 11 10 0 6 -2 10 -4 10 -3
0 -8 -4 -11 -10z"/>
<path d="M4050 14857 c0 -3 17 -15 38 -28 20 -12 51 -34 67 -48 l30 -26 -30
31 c-29 30 -105 81 -105 71z"/>
<path d="M2740 14821 c0 -11 4 -22 9 -25 4 -3 6 6 3 19 -5 30 -12 33 -12 6z"/>
<path d="M3550 14821 c0 -11 -3 -28 -7 -38 -3 -10 -3 -15 1 -12 12 11 25 69
15 69 -5 0 -9 -9 -9 -19z"/>
<path d="M4269 14812 c-3 -20 -2 -29 4 -23 5 5 7 19 5 32 -3 20 -5 19 -9 -9z"/>
<path d="M2022 14810 c0 -14 2 -19 5 -12 2 6 2 18 0 25 -3 6 -5 1 -5 -13z"/>
<path d="M2331 14794 c-44 -45 -30 -44 17 1 20 19 33 35 27 34 -5 0 -25 -16
-44 -35z"/>
<path d="M3113 14815 c-3 -9 -3 -18 -1 -21 3 -3 8 4 11 16 6 23 -1 27 -10 5z"/>
<path d="M2462 14805 c0 -11 3 -29 8 -40 11 -25 11 1 0 35 -6 20 -8 21 -8 5z"/>
<path d="M3818 14750 c-2 -22 -1 -40 3 -40 4 0 9 18 11 40 2 22 1 40 -3 40 -4
0 -9 -18 -11 -40z"/>
<path d="M3914 14748 c0 -27 4 -48 9 -48 9 0 8 37 -3 70 -6 19 -7 14 -6 -22z"/>
<path d="M4190 14781 c0 -5 5 -13 10 -16 6 -3 10 -2 10 4 0 5 -4 13 -10 16 -5
3 -10 2 -10 -4z"/>
<path d="M2381 14763 c0 -12 -4 -30 -7 -40 -5 -17 -5 -17 6 0 6 10 9 28 7 40
-4 22 -4 22 -6 0z"/>
<path d="M3099 14763 c0 -10 -2 -31 -4 -47 -2 -15 -1 -26 2 -22 8 8 16 86 9
86 -4 0 -6 -8 -7 -17z"/>
<path d="M3980 14777 c0 -2 14 -13 30 -25 17 -13 30 -19 30 -14 0 4 -13 16
-30 25 -16 10 -30 16 -30 14z"/>
<path d="M2237 14735 c-55 -26 -75 -41 -34 -26 38 15 87 41 87 46 0 6 4 8 -53
-20z"/>
<path d="M3190 14745 c0 -8 4 -15 10 -15 5 0 7 7 4 15 -4 8 -8 15 -10 15 -2 0
-4 -7 -4 -15z"/>
<path d="M3715 14750 c-3 -6 1 -7 9 -4 18 7 21 14 7 14 -6 0 -13 -4 -16 -10z"/>
<path d="M3300 14745 c0 -7 39 -26 72 -35 16 -5 26 -5 23 0 -3 5 -19 11 -35
15 -16 4 -32 11 -35 16 -6 9 -25 13 -25 4z"/>
<path d="M3660 14724 l-25 -15 25 7 c14 3 29 10 35 15 15 14 -7 10 -35 -7z"/>
<path d="M4061 14724 c6 -8 18 -14 26 -14 20 0 8 16 -17 23 -17 4 -19 3 -9 -9z"/>
<path d="M2470 14720 c0 -5 5 -10 11 -10 5 0 7 5 4 10 -3 6 -8 10 -11 10 -2 0
-4 -4 -4 -10z"/>
<path d="M2145 14701 c-11 -5 -23 -7 -27 -4 -5 2 -8 -1 -8 -8 0 -6 8 -9 20 -6
11 3 20 1 20 -4 0 -5 4 -9 9 -9 6 0 9 9 8 20 -1 11 -1 20 -2 19 0 0 -9 -4 -20
-8z"/>
<path d="M3608 14703 c7 -3 16 -2 19 1 4 3 -2 6 -13 5 -11 0 -14 -3 -6 -6z"/>
<path d="M3195 14690 c-3 -5 -1 -10 4 -10 6 0 11 5 11 10 0 6 -2 10 -4 10 -3
0 -8 -4 -11 -10z"/>
<path d="M3545 14691 c3 -6 11 -9 16 -5 5 3 17 0 26 -8 14 -11 16 -11 11 2 -2
8 -17 16 -32 18 -19 2 -26 0 -21 -7z"/>
<path d="M3817 14670 c3 -11 7 -20 9 -20 2 0 4 9 4 20 0 11 -4 20 -9 20 -5 0
-7 -9 -4 -20z"/>
<path d="M2475 14669 c-4 -6 -5 -12 -2 -15 2 -3 7 2 10 11 7 17 1 20 -8 4z"/>
<path d="M2924 14665 c22 -17 40 -20 32 -6 -3 5 -16 11 -28 14 -22 6 -22 5 -4
-8z"/>
<path d="M3093 14665 c0 -8 4 -15 9 -15 4 0 8 4 8 9 0 6 -4 12 -8 15 -5 3 -9
-1 -9 -9z"/>
<path d="M3639 14665 c18 -8 36 -15 40 -15 13 1 -45 29 -59 29 -8 0 0 -6 19
-14z"/>
<path d="M4100 14670 c-18 -12 -2 -12 25 0 13 6 15 9 5 9 -8 0 -22 -4 -30 -9z"/>
<path d="M2201 14667 c17 -14 89 -45 89 -39 0 4 -18 15 -40 25 -36 15 -60 22
-49 14z"/>
<path d="M2603 14651 c-42 -19 -138 -100 -129 -109 3 -2 19 12 36 32 18 20 60
49 93 66 68 32 68 41 0 11z"/>
<path d="M3915 14651 c-3 -5 -2 -12 3 -15 5 -3 9 1 9 9 0 17 -3 19 -12 6z"/>
<path d="M4015 14631 c-28 -16 -65 -46 -83 -67 -18 -20 -32 -31 -32 -23 0 11
-2 11 -10 -1 -5 -8 -10 -22 -10 -30 0 -8 23 9 49 38 27 29 73 66 103 82 29 16
49 30 43 30 -5 0 -33 -13 -60 -29z"/>
<path d="M2376 14635 c4 -8 8 -15 10 -15 2 0 4 7 4 15 0 8 -4 15 -10 15 -5 0
-7 -7 -4 -15z"/>
<path d="M3190 14639 c0 -5 5 -7 10 -4 6 3 10 8 10 11 0 2 -4 4 -10 4 -5 0
-10 -5 -10 -11z"/>
<path d="M3726 14624 c49 -33 90 -70 117 -108 l20 -29 -34 4 c-25 3 -41 -1
-55 -15 -10 -10 -13 -16 -6 -11 8 4 32 9 54 11 44 5 44 4 -6 -54 -15 -17 -16
-21 -5 -17 9 3 26 23 39 44 18 28 30 36 45 33 12 -2 37 1 56 6 32 10 31 10
-20 9 l-54 -2 -24 45 c-13 25 -21 34 -18 20 l6 -25 -23 25 c-28 30 -108 90
-121 90 -6 0 8 -12 29 -26z"/>
<path d="M2470 14631 c0 -5 -3 -16 -6 -25 -3 -9 -2 -16 3 -16 5 0 10 11 11 25
1 14 0 25 -3 25 -3 0 -5 -4 -5 -9z"/>
<path d="M3102 14620 c0 -14 2 -19 5 -12 2 6 2 18 0 25 -3 6 -5 1 -5 -13z"/>
<path d="M3821 14630 c0 -8 4 -22 9 -30 12 -18 12 -2 0 25 -6 13 -9 15 -9 5z"/>
<path d="M2130 14612 c0 -15 89 -78 144 -102 74 -31 69 -23 -9 15 -38 18 -85
48 -102 66 -18 17 -33 27 -33 21z"/>
<path d="M2353 14568 c31 -31 57 -61 57 -66 0 -6 -10 -13 -22 -15 -17 -3 -15
-5 9 -6 23 -1 38 -9 54 -32 33 -47 88 -95 142 -124 26 -15 47 -24 47 -21 0 3
-18 15 -40 26 -47 24 -111 80 -142 123 l-21 30 33 -5 c21 -3 39 0 47 7 10 10
1 12 -45 9 -52 -3 -55 -2 -33 10 17 9 24 23 26 47 l2 34 -15 -37 c-18 -46 -27
-48 -41 -5 -8 22 -14 28 -20 19 -6 -10 -10 -10 -21 3 -7 9 -27 26 -44 37 -17
12 -5 -4 27 -34z"/>
<path d="M3187 14601 c-4 -17 -3 -21 5 -13 5 5 8 16 6 23 -3 8 -7 3 -11 -10z"/>
<path d="M3906 14594 c-4 -14 -5 -28 -3 -31 3 -2 8 8 11 23 4 14 5 28 3 31 -3
2 -8 -8 -11 -23z"/>
<path d="M2380 14601 c0 -6 4 -13 10 -16 6 -3 7 1 4 9 -7 18 -14 21 -14 7z"/>
<path d="M2867 14591 c26 -27 114 -81 132 -81 9 0 -2 9 -25 19 -22 10 -56 32
-76 50 -39 34 -59 42 -31 12z"/>
<path d="M2750 14597 c0 -1 -4 -17 -9 -34 -5 -18 -6 -35 -2 -37 4 -3 8 0 8 7
0 7 3 25 7 40 3 15 4 27 1 27 -3 0 -5 -1 -5 -3z"/>
<path d="M3420 14590 c-8 -5 -12 -12 -9 -15 4 -3 12 1 19 10 14 17 11 19 -10
5z"/>
<path d="M3466 14578 c-3 -13 -5 -32 -5 -43 1 -11 5 -2 10 19 10 42 6 62 -5
24z"/>
<path d="M4125 14577 c-11 -11 -47 -32 -80 -48 -33 -16 -54 -29 -47 -29 29 0
164 82 152 93 -3 2 -14 -5 -25 -16z"/>
<path d="M3369 14549 c-23 -19 -23 -20 -2 -10 12 6 25 16 28 21 10 16 -1 12
-26 -11z"/>
<path d="M2832 14531 c1 -16 5 -28 9 -26 6 5 0 55 -7 55 -3 0 -3 -13 -2 -29z"/>
<path d="M3551 14545 c1 -19 18 -51 18 -35 0 8 -4 22 -9 30 -5 8 -9 11 -9 5z"/>
<path d="M2583 14520 c-24 -11 -43 -21 -43 -24 0 -7 72 23 85 35 12 12 7 11
-42 -11z"/>
<path d="M3305 14520 c-8 -13 5 -13 25 0 13 8 13 10 -2 10 -9 0 -20 -4 -23
-10z"/>
<path d="M3020 14506 c0 -2 7 -7 16 -10 8 -3 12 -2 9 4 -6 10 -25 14 -25 6z"/>
<path d="M3457 14455 c2 -31 8 -66 13 -78 7 -16 8 -12 3 18 -3 22 -6 57 -6 77
0 21 -3 38 -7 38 -4 0 -5 -25 -3 -55z"/>
<path d="M3735 14500 c28 -12 47 -12 40 0 -3 6 -18 10 -33 9 -24 0 -25 -1 -7
-9z"/>
<path d="M3559 14488 c-6 -21 -5 -39 2 -44 5 -3 9 6 9 20 0 21 -7 36 -11 24z"/>
<path d="M2520 14478 c8 -8 100 -47 100 -43 0 3 -12 11 -27 18 -30 16 -81 33
-73 25z"/>
<path d="M2731 14464 c0 -11 3 -14 6 -6 3 7 2 16 -1 19 -3 4 -6 -2 -5 -13z"/>
<path d="M3310 14444 c30 -14 60 -30 67 -36 7 -6 13 -6 13 -1 0 10 -103 63
-123 63 -6 0 13 -12 43 -26z"/>
<path d="M3698 14452 c-21 -10 -38 -20 -38 -25 0 -6 76 27 89 39 9 8 -16 1
-51 -14z"/>
<path d="M2985 14450 c-3 -5 -2 -10 4 -10 5 0 13 5 16 10 3 6 2 10 -4 10 -5 0
-13 -4 -16 -10z"/>
<path d="M2916 14414 c-27 -20 -60 -48 -73 -63 -27 -29 -26 -32 -7 42 4 17 3
19 -5 7 -6 -8 -11 -20 -11 -27 0 -6 -4 -22 -9 -35 -11 -29 -12 -38 -6 -38 3 0
4 1 3 3 -4 3 97 93 138 124 16 12 27 22 24 22 -3 0 -27 -16 -54 -35z"/>
<path d="M2830 14429 c0 -5 5 -7 10 -4 6 3 10 8 10 11 0 2 -4 4 -10 4 -5 0
-10 -5 -10 -11z"/>
<path d="M2678 14391 c52 -41 92 -90 92 -112 0 -7 3 -9 6 -6 4 3 19 -11 34
-31 27 -38 113 -114 140 -124 8 -4 32 -14 53 -23 22 -9 37 -12 34 -8 -3 4 -29
17 -57 28 -33 13 -74 41 -111 76 -62 60 -72 79 -39 79 11 0 20 4 20 9 0 6 -12
9 -27 8 -27 -2 -32 4 -62 73 -11 24 -11 24 -6 -5 l5 -30 -35 38 c-19 20 -38
37 -41 37 -3 0 -12 7 -20 15 -9 8 -20 15 -26 15 -5 0 13 -18 40 -39z"/>
<path d="M3551 14413 c0 -12 -4 -30 -7 -40 -5 -17 -5 -17 6 0 6 10 9 28 7 40
-4 22 -4 22 -6 0z"/>
<path d="M2741 14404 c0 -11 3 -14 6 -6 3 7 2 16 -1 19 -3 4 -6 -2 -5 -13z"/>
<path d="M3593 14380 c-28 -22 -53 -37 -56 -34 -3 3 -8 -9 -12 -27 l-7 -33
-20 35 c-11 18 -17 25 -14 14 5 -17 4 -18 -7 -5 -7 8 -28 28 -47 45 l-35 30
35 -40 c20 -22 46 -52 59 -67 l23 -27 -23 6 c-18 3 -20 2 -10 -5 12 -9 10 -16
-12 -45 -32 -42 -107 -99 -160 -121 -55 -23 -133 -31 -142 -16 -5 9 -4 11 3 6
7 -4 12 -3 12 1 0 12 58 73 95 100 17 12 25 23 19 23 -7 0 -35 -22 -63 -48
-28 -26 -51 -43 -52 -38 0 6 -4 0 -10 -12 -5 -13 -14 -22 -20 -20 -13 4 -39
73 -39 105 0 12 -4 24 -9 27 -9 6 1 -56 14 -86 10 -25 -12 -23 -25 2 -11 20
-107 90 -123 90 -5 0 15 -16 44 -36 52 -34 118 -100 119 -118 0 -4 -18 -6 -39
-4 -22 2 -37 -1 -34 -5 3 -5 51 -7 107 -4 82 3 111 9 156 30 67 32 137 88 173
139 17 25 32 36 42 32 8 -4 15 -1 15 6 0 6 -4 8 -10 5 -5 -3 -10 0 -10 8 0 13
64 81 105 112 11 8 17 15 14 15 -4 0 -29 -18 -56 -40z"/>
<path d="M3106 14378 c-3 -13 -5 -32 -5 -43 1 -11 5 -2 10 19 10 42 6 62 -5
24z"/>
<path d="M3770 14375 c-8 -8 -40 -28 -70 -44 -30 -17 -50 -31 -44 -31 11 0
122 65 139 81 5 6 5 9 -1 9 -5 0 -16 -7 -24 -15z"/>
<path d="M2985 14334 c-10 -8 -43 -22 -72 -31 -29 -9 -53 -23 -53 -30 0 -7 5
-13 11 -13 5 0 8 4 5 9 -3 5 20 18 52 30 63 23 89 37 82 45 -3 2 -14 -2 -25
-10z"/>
<path d="M3190 14340 c0 -5 5 -10 11 -10 5 0 7 5 4 10 -3 6 -8 10 -11 10 -2 0
-4 -4 -4 -10z"/>
<path d="M3290 14341 c0 -8 70 -44 76 -39 1 2 -15 13 -37 25 -21 12 -39 18
-39 14z"/>
<path d="M2664 14296 c11 -9 31 -16 45 -15 24 1 24 2 -5 8 -17 4 -37 11 -45
15 -8 4 -5 0 5 -8z"/>
<path d="M3099 14303 c-5 -29 -5 -53 -1 -48 7 6 12 55 6 55 -2 0 -5 -3 -5 -7z"/>
<path d="M3195 14290 c3 -5 8 -10 11 -10 2 0 4 5 4 10 0 6 -5 10 -11 10 -5 0
-7 -4 -4 -10z"/>
<path d="M3403 14289 c15 -6 27 -14 27 -18 0 -4 7 -8 15 -8 16 0 20 13 8 20
-5 3 -24 7 -43 11 -33 5 -33 5 -7 -5z"/>
<path d="M3600 14290 c-21 -7 -21 -8 -5 -9 11 0 27 4 35 9 18 11 5 11 -30 0z"/>
<path d="M2890 14264 c0 -7 52 -25 57 -20 2 2 -10 8 -26 14 -17 6 -31 9 -31 6z"/>
<path d="M3199 14268 c-5 -18 -6 -38 -1 -34 7 8 12 36 6 36 -2 0 -4 -1 -5 -2z"/>
<path d="M3368 14253 c7 -3 16 -2 19 1 4 3 -2 6 -13 5 -11 0 -14 -3 -6 -6z"/>
<path d="M3324 14235 c-18 -14 -18 -14 4 -8 12 3 22 9 22 14 0 12 -3 11 -26
-6z"/>
<path d="M3186 14189 c-8 -42 0 -50 9 -9 4 17 5 34 2 36 -2 3 -7 -10 -11 -27z"/>
<path d="M12450 17115 c-149 -34 -225 -68 -288 -129 -93 -88 -126 -210 -96
-351 44 -204 349 -328 679 -275 171 27 330 134 381 256 45 107 -9 277 -115
362 -54 44 -155 97 -230 122 -85 28 -241 35 -331 15z"/>
<path d="M10188 16483 c-287 -145 -523 -265 -524 -266 -3 -4 -14 -166 -15
-234 -1 -39 -5 -75 -8 -80 -6 -9 -38 -10 -263 -12 l-128 -1 0 -81 0 -81 201 4
c110 2 202 1 204 -3 3 -3 7 -368 10 -810 6 -948 8 -1002 41 -1149 30 -133 89
-218 217 -317 190 -147 474 -222 792 -210 323 12 520 91 717 287 144 142 191
256 132 321 -49 54 -110 23 -246 -123 -115 -123 -196 -187 -290 -225 -63 -25
-238 -73 -270 -73 -15 0 -17 79 -17 1145 l0 1145 323 0 323 0 17 43 c21 56 20
83 -3 106 -35 35 -87 41 -378 41 l-282 0 0 373 c0 204 0 393 -1 418 0 33 -4
46 -14 46 -8 0 -250 -119 -538 -264z"/>
<path d="M13960 15013 l0 -1733 534 0 534 0 7 28 c4 15 7 312 6 660 0 347 2
632 5 632 3 0 13 -19 23 -42 11 -24 63 -133 116 -243 54 -110 114 -236 135
-280 47 -100 297 -620 335 -697 l28 -58 549 0 c301 0 548 1 548 3 0 2 -42 93
-94 203 -51 109 -110 235 -131 279 -20 44 -87 186 -147 315 -61 129 -129 273
-150 320 -22 47 -56 119 -75 160 -19 41 -50 107 -68 145 -230 486 -236 499
-223 510 7 7 159 119 338 250 179 131 343 252 366 269 l40 31 -55 87 c-31 48
-61 86 -67 84 -6 -2 -338 -238 -737 -525 -400 -287 -729 -521 -731 -521 -3 0
-5 399 -5 888 0 488 0 905 -1 927 l0 41 -540 0 -540 0 0 -1733z"/>
<path d="M7345 15936 c-140 -24 -304 -75 -447 -140 -65 -29 -61 -31 -58 50 1
27 -3 43 -12 46 -7 2 -240 4 -518 4 l-505 -1 -1 -1692 -1 -1692 26 -8 c31 -10
983 -9 999 1 8 5 11 118 11 389 0 210 0 405 0 434 l1 52 87 -30 c162 -54 295
-70 598 -71 231 -1 357 10 505 42 128 27 208 60 321 131 239 149 440 412 543
707 67 192 82 342 57 567 -18 158 -43 266 -91 385 -75 190 -132 279 -262 408
-119 118 -224 193 -373 266 -154 76 -275 118 -405 141 -127 23 -372 28 -475
11z m353 -159 c18 -12 18 -2343 -1 -2350 -7 -3 -92 -4 -188 -2 -246 5 -351 26
-571 117 -88 37 -98 43 -98 67 -4 187 -1 1964 3 1967 11 11 247 112 307 132
102 33 223 62 292 70 84 10 240 9 256 -1z"/>
<path d="M12062 15886 c-7 -12 -7 -2574 0 -2582 7 -6 1048 -7 1055 0 7 7 5
2577 -2 2584 -11 11 -1046 9 -1053 -2z"/>
<path d="M12390 12023 c-236 -36 -516 -169 -831 -394 -185 -132 -314 -243
-509 -439 -201 -200 -332 -348 -448 -505 -75 -101 -406 -596 -477 -712 -35
-58 -41 -63 -74 -64 -20 0 -44 -2 -55 -4 -10 -2 -58 -6 -105 -10 -47 -3 -102
-8 -122 -11 -20 -3 -121 -6 -225 -6 -601 -1 -958 107 -1161 351 -63 77 -128
204 -141 278 -56 319 218 716 648 937 252 130 660 247 950 274 124 12 581 12
739 1 68 -5 125 -8 126 -7 2 2 5 42 7 90 5 100 12 93 -97 103 -38 4 -80 8 -93
10 -13 2 -67 7 -120 10 -53 4 -115 8 -137 11 -60 6 -443 5 -500 -2 -362 -40
-686 -137 -1007 -300 -191 -98 -308 -180 -423 -297 -143 -147 -224 -275 -281
-444 -109 -323 -51 -593 177 -822 201 -202 432 -305 794 -355 61 -8 128 -18
150 -21 81 -12 581 -13 708 -2 100 10 126 10 123 0 -3 -7 -58 -90 -122 -184
-452 -668 -881 -1147 -1229 -1371 -236 -153 -575 -285 -856 -334 -257 -44
-627 -12 -795 71 -193 94 -269 260 -152 329 29 18 31 17 88 -8 105 -47 170
-50 261 -12 113 47 171 165 134 275 -37 113 -173 168 -334 135 -201 -41 -367
-185 -422 -366 -55 -181 22 -349 219 -478 180 -118 453 -171 847 -164 612 11
1245 255 1785 689 230 184 478 475 652 763 68 112 277 480 368 647 24 44 48
83 54 88 6 4 56 21 111 38 424 130 783 300 1175 557 273 178 389 269 574 450
309 303 496 633 499 882 2 143 -99 267 -248 304 -61 16 -180 26 -225 19z m163
-218 c171 -81 8 -464 -353 -826 -309 -310 -695 -582 -1080 -762 -190 -89 -228
-105 -370 -160 -184 -70 -195 -73 -184 -56 306 509 778 1119 1062 1376 166
150 312 253 470 332 220 111 362 140 455 96z"/>
<path d="M21445 10663 c-159 -27 -419 -115 -590 -201 -182 -91 -389 -223 -525
-335 -124 -102 -307 -289 -379 -387 -35 -47 -69 -87 -75 -89 -6 -2 -90 -61
-186 -131 -327 -236 -558 -381 -775 -486 -128 -62 -278 -114 -291 -101 -12 11
18 67 74 141 75 97 73 95 451 506 236 256 330 398 367 556 15 62 16 78 4 120
-28 98 -122 155 -261 155 -222 0 -613 -220 -1068 -603 -178 -149 -198 -165
-180 -143 78 95 489 625 489 630 0 3 -3 4 -7 2 -5 -3 -46 -8 -93 -12 -47 -4
-133 -12 -192 -18 l-108 -12 -325 -415 -326 -415 -112 -16 c-111 -16 -234 -16
-248 -2 -5 5 17 44 47 88 139 202 198 420 145 539 -47 107 -212 150 -421 110
-365 -69 -864 -340 -1183 -644 -102 -97 -236 -256 -282 -335 -19 -32 -32 -44
-43 -40 -9 3 -45 -18 -91 -53 -412 -317 -786 -547 -1011 -622 -130 -44 -145
-29 -73 77 45 67 103 133 292 333 347 367 405 439 477 595 103 223 68 365
-104 420 -219 71 -623 -127 -1117 -548 -55 -47 -101 -84 -103 -82 -2 2 10 30
27 62 38 75 68 165 76 226 26 190 -181 295 -420 213 -239 -82 -569 -304 -940
-634 -66 -58 -115 -100 -109 -92 21 28 487 615 500 630 11 13 -14 12 -190 -4
l-202 -20 -344 -441 c-251 -321 -356 -448 -384 -464 -21 -13 -102 -73 -180
-133 -272 -213 -500 -365 -682 -457 -99 -49 -209 -89 -219 -79 -8 8 11 53 48
111 19 28 264 348 545 710 282 362 512 659 512 661 0 2 -12 2 -27 0 -16 -1
-113 -11 -216 -21 l-188 -17 -53 -61 c-82 -95 -607 -734 -658 -800 -123 -163
-214 -360 -225 -487 -5 -59 -3 -73 22 -124 32 -66 91 -109 164 -120 25 -4 54
-8 63 -10 28 -5 139 22 223 55 97 37 263 128 403 222 58 38 106 68 107 67 2
-2 -35 -50 -81 -108 -46 -58 -83 -109 -84 -113 0 -5 12 -6 28 -3 15 3 63 8
107 12 43 3 87 7 96 9 9 2 56 6 105 10 49 4 92 10 95 13 3 4 58 69 122 144
380 446 881 905 1282 1175 164 110 387 221 478 238 31 6 37 5 37 -11 0 -39
-111 -205 -269 -404 -168 -211 -811 -1053 -807 -1057 4 -5 309 22 371 32 11 2
27 4 36 4 10 1 61 54 115 119 188 224 291 338 449 496 515 517 1008 863 1339
940 29 7 29 7 23 -33 -3 -22 -30 -91 -62 -153 l-56 -113 -220 -185 c-235 -197
-333 -302 -420 -452 -56 -96 -100 -224 -102 -296 -3 -193 209 -285 453 -197
191 70 532 270 866 510 42 30 79 53 81 51 2 -2 -1 -31 -6 -64 -12 -75 -7 -113
25 -179 47 -98 143 -154 302 -176 103 -13 196 -2 334 43 181 58 465 216 608
338 79 67 279 268 375 375 l70 78 47 -20 c63 -27 130 -38 211 -35 49 2 65 -1
60 -9 -4 -7 -105 -137 -225 -291 -121 -153 -217 -280 -216 -281 2 -2 100 7
218 19 l214 21 161 195 c322 392 734 770 1150 1055 148 102 266 171 398 236
116 56 241 98 254 86 11 -11 -93 -150 -185 -247 -13 -14 -121 -146 -240 -295
-118 -148 -252 -309 -297 -356 -160 -170 -212 -352 -135 -477 37 -61 141 -104
253 -104 163 -1 500 170 971 492 82 55 150 100 152 98 1 -2 -2 -24 -7 -48 -14
-60 -7 -146 16 -194 62 -129 240 -197 442 -167 305 43 644 184 1103 459 166
99 434 275 492 324 l28 23 -66 49 -65 49 -47 -22 c-26 -13 -123 -70 -215 -128
-475 -295 -883 -498 -1165 -579 -107 -30 -195 -30 -218 0 -31 44 14 153 125
298 126 165 105 151 339 238 857 319 1284 601 1286 852 1 49 -3 61 -28 87 -56
58 -184 79 -331 54z m125 -151 c0 -74 -196 -249 -425 -380 -220 -126 -709
-348 -674 -305 21 24 324 265 479 380 213 158 369 249 510 299 82 28 110 30
110 6z m-4508 -529 c18 -16 24 -59 10 -79 -4 -5 -25 -21 -47 -34 -109 -64
-169 -134 -204 -238 -25 -72 -27 -139 -6 -188 14 -35 14 -37 -13 -69 -54 -65
-359 -362 -432 -421 -212 -172 -515 -328 -679 -350 -48 -6 -105 12 -123 40
-87 131 525 832 1007 1153 175 117 357 202 434 203 19 0 43 -7 53 -17z m3373
-183 c-3 -5 -12 -10 -18 -10 -7 0 -6 4 3 10 19 12 23 12 15 0z"/>
<path d="M23372 10418 c-147 -218 -239 -376 -397 -683 -259 -506 -359 -669
-552 -902 -304 -367 -697 -552 -1283 -602 -100 -9 -508 -6 -601 3 -30 3 -101
11 -159 16 -119 13 -501 70 -850 129 -441 74 -654 95 -965 96 -611 1 -1044
-112 -2215 -575 -681 -269 -932 -357 -1315 -460 -420 -113 -732 -164 -1292
-215 -296 -27 -1599 -27 -1943 0 -19 1 -114 6 -210 9 -96 4 -193 9 -215 11
-22 2 -98 7 -170 10 -71 3 -146 8 -165 10 -19 2 -107 7 -195 10 -88 3 -169 8
-180 11 -15 4 -17 3 -5 -4 8 -5 51 -15 94 -23 51 -9 71 -15 57 -19 -13 -3 98
-20 246 -39 147 -18 279 -35 293 -37 33 -5 380 -43 450 -50 30 -2 73 -7 95 -9
22 -2 103 -9 180 -15 77 -6 165 -13 195 -15 230 -20 936 -27 1200 -12 671 38
1311 164 2090 414 284 91 634 212 865 300 859 326 1110 411 1413 474 293 60
502 73 919 54 77 -3 152 -8 165 -10 12 -2 59 -6 103 -10 94 -7 169 -15 530
-54 149 -16 299 -32 335 -36 105 -9 171 -15 233 -20 31 -3 81 -7 110 -10 207
-17 671 -24 827 -11 413 35 683 102 946 234 261 132 518 395 729 747 82 135
192 347 284 545 124 265 321 650 428 833 2 4 2 7 0 7 -3 0 -36 -46 -75 -102z"/>
<path d="M11920 10347 c-124 -44 -197 -111 -221 -200 -19 -71 24 -148 101
-181 118 -49 274 -16 381 81 111 101 108 237 -8 294 -66 32 -172 35 -253 6z"/>
</g>
</svg>
